<?xml version="1.0" standalone="no"?>
<!DOCTYPE svg PUBLIC "-//W3C//DTD SVG 20010904//EN"
 "http://www.w3.org/TR/2001/REC-SVG-20010904/DTD/svg10.dtd">
<svg version="1.0" xmlns="http://www.w3.org/2000/svg"
 width="1096.000000pt" height="1168.000000pt" viewBox="0 0 1096.000000 1168.000000"
 preserveAspectRatio="xMidYMid meet">

<g transform="translate(0.000000,1168.000000) scale(0.100000,-0.100000)"
fill="#000000" stroke="none">
<path d="M0 5840 l0 -5840 5480 0 5480 0 0 5840 0 5840 -5480 0 -5480 0 0
-5840z m5517 5480 c60 -36 50 -136 -16 -158 -94 -32 -162 79 -92 149 34 34 64
37 108 9z m1746 8 c4 -10 8 -9 16 2 9 12 12 13 20 1 6 -9 11 -10 15 -2 5 7 13
7 26 -2 16 -9 20 -23 20 -70 l0 -58 -72 3 -73 3 -3 58 c-2 46 0 57 13 57 8 0
15 5 15 10 0 14 17 12 23 -2z m-1373 -23 c15 -18 -1 -20 -18 -3 -16 16 -44 -9
-40 -36 2 -17 10 -21 36 -19 27 1 31 -1 21 -13 -26 -31 -69 -9 -69 36 0 46 43
67 70 35z m1620 6 c0 -5 -7 -8 -16 -7 -26 2 -28 -22 -2 -27 l23 -4 -22 -8
c-14 -4 -23 -15 -23 -27 0 -10 -4 -17 -8 -14 -6 3 -9 80 -3 94 3 7 51 1 51 -7z
m115 -18 c17 7 35 -12 35 -39 0 -28 -14 -37 -40 -29 -16 5 -20 15 -19 53 1 26
3 39 6 29 3 -10 11 -16 18 -14z m125 -24 c0 -31 -4 -48 -10 -44 -5 3 -10 22
-10 41 0 21 -4 33 -10 29 -5 -3 -10 -2 -10 4 0 9 15 18 33 20 4 1 7 -22 7 -50z
m139 37 c8 -10 6 -19 -9 -39 -24 -30 -25 -38 -5 -31 8 4 15 1 15 -5 0 -6 -11
-11 -25 -11 -30 0 -31 9 -4 44 22 28 17 55 -7 35 -8 -6 -14 -7 -14 -2 0 25 31
31 49 9z m80 0 c17 -20 10 -67 -11 -79 -23 -15 -48 8 -48 42 0 45 35 66 59 37z
m81 -1 c11 -13 9 -20 -10 -40 -20 -21 -21 -25 -7 -25 9 0 17 -4 17 -10 0 -5
-11 -10 -25 -10 -31 0 -32 16 -4 46 23 25 17 53 -7 33 -8 -6 -14 -7 -14 -2 0
26 31 31 50 8z m80 -20 c0 -48 -2 -50 -30 -47 -35 5 -35 7 -10 46 27 45 40 46
40 1z m270 26 c0 -5 -7 -8 -16 -7 -9 0 -19 -5 -21 -11 -3 -8 4 -13 16 -13 12
0 21 -4 21 -10 0 -5 -9 -10 -19 -10 -12 0 -21 -8 -24 -22 -2 -13 -5 1 -6 30
-1 49 0 52 24 52 14 0 25 -4 25 -9z m104 -13 c-5 -7 -1 -9 9 -5 15 6 47 -16
47 -32 0 -21 -27 -40 -47 -35 -20 5 -23 13 -23 51 0 27 4 42 10 38 6 -4 7 -11
4 -17z m154 -4 c2 -11 -4 -27 -13 -34 -19 -16 -20 -31 0 -24 8 4 15 1 15 -5 0
-6 -13 -11 -30 -11 -37 0 -37 6 -4 41 15 16 23 32 19 39 -5 8 -10 9 -18 1 -17
-17 -31 -13 -17 4 18 21 44 15 48 -11z m82 6 c24 -44 -17 -98 -49 -65 -15 15
-14 16 12 10 16 -5 27 -3 27 3 0 6 -10 12 -22 14 -26 3 -37 36 -16 49 21 14
37 10 48 -11z m140 5 c11 -13 9 -20 -9 -39 l-22 -23 23 -8 c22 -8 22 -8 -5
-12 -39 -6 -42 1 -17 35 24 32 20 62 -6 41 -8 -6 -14 -7 -14 -2 0 26 31 31 50
8z m78 3 c16 -16 15 -63 -2 -77 -33 -27 -69 26 -46 68 12 24 30 27 48 9z m81
-2 c10 -12 9 -20 -4 -40 -16 -24 -16 -26 -1 -26 9 0 16 -4 16 -10 0 -5 -13
-10 -30 -10 -36 0 -37 6 -9 36 25 27 20 65 -6 44 -8 -7 -15 -8 -15 -3 0 25 31
31 49 9z m84 -23 c2 -21 1 -45 -4 -53 -5 -10 -8 -11 -9 -2 0 6 -11 12 -25 12
-14 0 -25 2 -25 4 0 11 43 76 50 76 4 0 10 -17 13 -37z m457 -15 c0 -5 4 -8 9
-8 6 0 12 15 14 33 2 20 4 12 5 -23 l1 -55 -29 35 -29 35 -1 -33 c0 -21 -4
-31 -11 -27 -10 7 -11 70 -1 89 5 9 41 -32 42 -46z m270 37 c10 -12 10 -18 0
-30 -10 -12 -10 -18 0 -30 7 -9 10 -18 7 -21 -3 -3 -12 3 -19 15 -15 24 -28
27 -28 7 0 -8 -4 -18 -10 -21 -6 -4 -10 13 -10 44 0 47 2 51 24 51 13 0 29 -7
36 -15z m-3765 -45 c1 -29 -2 -37 -11 -29 -9 7 -12 52 -5 78 4 17 15 -17 16
-49z m2126 43 c5 -74 5 -83 -5 -80 -14 5 -21 87 -7 87 6 0 11 -3 12 -7z m1520
0 c5 -74 5 -83 -5 -80 -12 4 -25 55 -18 75 4 13 22 17 23 5z m-5349 -10 c-40
-5 -41 -33 -2 -44 25 -7 25 -7 -3 -8 -22 -1 -28 -5 -25 -18 2 -12 11 -17 26
-15 12 2 22 -2 22 -7 0 -6 -13 -11 -30 -11 -30 0 -30 1 -30 55 l0 55 38 -2 37
-1 -33 -4z m596 0 c-14 -3 -18 -15 -18 -48 0 -24 -4 -47 -10 -50 -6 -4 -10 13
-10 44 0 39 -4 51 -17 54 -10 3 2 5 27 5 25 0 37 -2 28 -5z m1057 -3 c3 -5 -2
-10 -12 -10 -16 0 -15 -3 5 -18 18 -14 20 -20 10 -30 -15 -15 -35 -15 -44 0
-5 8 -2 9 9 5 9 -3 19 -2 22 3 4 6 3 10 -2 10 -4 0 -14 4 -22 9 -12 8 -12 12
-2 25 15 18 27 20 36 6z m123 -2 c27 -27 2 -75 -32 -62 -26 10 -15 74 14 74 3
0 11 -5 18 -12z m118 -34 c1 -34 1 -35 -3 -6 -5 40 -25 38 -34 -4 l-7 -29 -1
33 c-1 21 -6 32 -15 32 -9 0 -16 -13 -19 -32 l-4 -33 -1 37 c-2 40 6 46 53 43
28 -2 30 -5 31 -41z m607 26 c8 12 17 17 21 12 3 -5 -6 -19 -19 -32 l-24 -23
-20 24 c-28 33 -26 47 3 20 l24 -22 15 21z m697 -7 c0 -8 -9 -17 -20 -20 -11
-3 -17 -9 -15 -14 3 -4 13 -5 23 -2 14 5 15 4 4 -8 -9 -10 -17 -11 -30 -3 -24
15 -27 45 -7 60 20 15 45 8 45 -13z m716 -5 c9 -29 -20 -57 -44 -42 -24 15
-27 45 -7 60 21 16 42 8 51 -18z m178 6 c3 -9 -3 -16 -19 -20 -14 -3 -22 -10
-20 -15 3 -4 13 -5 23 -2 14 5 15 4 4 -8 -15 -16 -45 -2 -50 23 -7 37 49 57
62 22z m1206 11 c15 -18 5 -35 -23 -35 -17 0 -19 -2 -8 -9 8 -5 21 -7 30 -4
13 5 14 3 3 -8 -27 -29 -67 26 -42 56 16 19 24 19 40 0z m241 -1 c10 -13 10
-17 -2 -25 -8 -5 -18 -9 -22 -9 -5 0 -6 -4 -2 -10 3 -5 13 -6 23 -3 14 5 15 4
4 -8 -27 -29 -67 26 -42 56 16 19 24 19 41 -1z m149 1 c15 -18 13 -21 -20 -34
-25 -10 -25 -10 5 -11 26 0 28 -2 12 -11 -25 -15 -47 -4 -47 24 0 22 16 47 31
47 4 0 12 -7 19 -15z m82 -26 c3 -16 1 -32 -4 -35 -4 -3 -8 9 -8 25 0 21 -5
31 -15 31 -10 0 -15 -10 -15 -31 0 -16 -4 -28 -9 -24 -16 9 -10 64 8 68 27 6
39 -3 43 -34z m149 25 c10 -13 10 -17 -2 -25 -8 -5 -21 -9 -29 -9 -13 0 -13
-2 -1 -9 8 -5 21 -7 30 -4 14 4 13 3 -1 -6 -36 -24 -67 26 -36 57 16 16 23 15
39 -4z m299 -19 l-24 -25 -23 22 c-27 25 -22 39 5 15 18 -16 20 -16 37 3 10
11 21 18 23 15 3 -3 -5 -16 -18 -30z m-5985 -28 c1 -49 -11 -64 -20 -24 -11
53 -9 80 7 75 7 -3 12 -25 13 -51z m1315 28 c0 -36 30 -33 31 3 0 23 1 24 8 7
4 -11 6 -27 4 -36 -6 -20 -40 -19 -53 1 -13 20 -13 50 0 50 6 0 10 -11 10 -25z
m4037 3 l10 -23 7 23 c4 12 11 22 16 22 5 0 3 -14 -4 -31 -7 -17 -16 -30 -21
-30 -5 0 -14 13 -21 30 -15 35 -2 43 13 9z m223 -4 c0 -32 22 -27 31 7 6 20 7
19 8 -12 1 -28 -3 -35 -17 -34 -9 0 -23 4 -30 9 -14 9 -16 56 -2 56 6 0 10
-12 10 -26z m-5712 4 c7 -7 12 -26 12 -43 0 -25 -4 -31 -22 -32 -31 -3 -52 16
-37 33 6 8 18 14 25 14 8 0 14 5 14 11 0 6 -9 9 -20 6 -22 -6 -28 8 -7 16 19
8 22 8 35 -5z m77 2 c3 -5 -1 -10 -9 -10 -23 0 -19 -17 5 -23 29 -8 21 -42
-10 -42 -14 0 -27 7 -29 15 -5 13 -3 13 12 1 13 -11 20 -11 28 -3 7 7 8 12 2
12 -6 0 -19 6 -29 14 -16 12 -17 16 -6 30 15 18 27 20 36 6z m139 -6 c24 -23
19 -34 -14 -34 -16 0 -30 -4 -30 -10 0 -10 14 -14 40 -10 12 1 13 -1 2 -11 -9
-10 -17 -11 -30 -3 -24 16 -28 55 -6 71 22 16 19 16 38 -3z m144 4 c15 -15 16
-82 2 -73 -5 3 -10 19 -10 36 0 19 -5 29 -15 29 -10 0 -15 -11 -15 -35 0 -19
-4 -35 -10 -35 -5 0 -10 18 -10 39 0 38 3 42 41 50 3 0 10 -4 17 -11z m300 -2
c7 -4 11 -24 11 -44 l-2 -37 -6 35 c-4 22 -12 35 -21 35 -9 0 -17 -13 -21 -35
l-6 -35 -2 38 c-1 46 -31 54 -31 8 0 -17 -4 -33 -10 -36 -6 -4 -10 10 -10 34
0 29 4 40 17 43 26 5 68 2 81 -6z m102 -21 c0 -10 -10 -15 -30 -15 -16 0 -30
-4 -30 -10 0 -10 14 -14 40 -10 12 1 13 -1 2 -11 -9 -10 -17 -11 -30 -3 -42
26 -14 96 29 73 11 -5 19 -16 19 -24z m-482 13 c-9 -7 -19 -26 -21 -43 -3 -24
-4 -21 -6 13 -1 37 2 42 21 42 19 0 20 -1 6 -12z m259 -50 c-2 -13 -4 -3 -4
22 0 25 2 35 4 23 2 -13 2 -33 0 -45z m2760 0 c-3 -7 -5 -2 -5 12 0 14 2 19 5
13 2 -7 2 -19 0 -25z m996 7 c-7 -21 -13 -19 -13 6 0 11 4 18 10 14 5 -3 7
-12 3 -20z m-8463 -404 c0 -5 -10 -11 -22 -13 -32 -5 -35 -28 -4 -28 14 0 26
-4 26 -10 0 -5 -11 -10 -25 -10 -14 0 -25 -4 -25 -10 0 -5 11 -10 25 -10 14 0
25 -4 25 -10 0 -5 -16 -10 -35 -10 l-35 0 0 55 0 55 35 0 c19 0 35 -4 35 -9z
m280 -1 c0 -5 -4 -10 -10 -10 -5 0 -10 5 -10 10 0 6 5 10 10 10 6 0 10 -4 10
-10z m283 -27 l15 -38 17 38 c21 51 39 42 43 -21 3 -43 0 -52 -14 -52 -12 0
-15 6 -10 25 4 14 2 25 -3 25 -5 0 -12 -11 -15 -25 -9 -34 -23 -31 -40 8 l-14
32 -1 -32 c-2 -57 -21 -36 -21 22 0 66 20 75 43 18z m317 27 c0 -5 -4 -10 -10
-10 -5 0 -10 5 -10 10 0 6 5 10 10 10 6 0 10 -4 10 -10z m6290 0 c0 -5 -7 -10
-15 -10 -11 0 -15 -12 -15 -45 0 -57 -18 -59 -22 -2 -2 24 -8 43 -15 43 -23 2
-24 4 -18 14 3 6 24 10 46 10 21 0 39 -4 39 -10z m300 0 c0 -5 -11 -10 -25
-10 -16 0 -25 -6 -25 -15 0 -8 9 -15 20 -15 11 0 20 -4 20 -10 0 -5 -9 -10
-20 -10 -13 0 -20 -7 -20 -20 0 -11 -4 -20 -9 -20 -9 0 -20 98 -12 106 9 9 71
3 71 -6z m-6692 -17 c12 -12 13 -18 4 -21 -16 -5 -16 -34 1 -51 10 -10 8 -12
-8 -9 -20 3 -38 58 -28 85 7 17 11 16 31 -4z m-700 -15 c7 -7 12 -25 12 -40 0
-25 -3 -28 -34 -28 -45 0 -55 24 -18 45 22 13 23 15 5 10 -13 -4 -23 -2 -23 3
0 23 38 30 58 10z m72 0 c0 -4 -4 -10 -10 -13 -5 -3 -10 -17 -10 -31 0 -14 -6
-24 -14 -24 -9 0 -13 11 -11 38 2 20 4 38 4 39 3 5 41 -2 41 -9z m88 -30 c4
-43 -15 -53 -20 -11 -4 39 -28 42 -28 4 0 -22 -5 -31 -16 -31 -12 0 -15 6 -10
23 3 12 6 29 6 39 0 12 8 16 33 15 29 -2 32 -5 35 -39z m42 2 c0 -22 -4 -40
-10 -40 -5 0 -10 18 -10 40 0 22 5 40 10 40 6 0 10 -18 10 -40z m88 -2 c2 -22
-1 -38 -7 -38 -6 0 -11 14 -11 31 0 38 -24 35 -28 -4 -5 -42 -22 -32 -22 12 0
38 1 39 33 38 29 -2 32 -5 35 -39z m102 -9 c0 -56 -23 -79 -60 -59 -28 15 -25
23 4 16 14 -3 28 -2 31 4 4 6 -5 10 -20 10 -29 0 -40 19 -31 55 5 20 12 24 41
23 35 -1 35 -1 35 -49z m248 39 c20 -20 14 -38 -14 -38 -14 0 -23 -4 -20 -9 3
-5 16 -7 28 -3 14 3 19 2 14 -6 -9 -16 -49 -15 -64 0 -24 24 -7 68 28 68 9 0
21 -5 28 -12z m132 1 c0 -5 -4 -9 -10 -9 -5 0 -10 -13 -10 -30 0 -20 -5 -30
-15 -30 -11 0 -15 11 -15 39 0 34 3 39 25 39 14 0 25 -4 25 -9z m38 -32 c2
-28 -1 -37 -12 -37 -12 0 -16 11 -16 41 0 52 24 48 28 -4z m83 26 c13 -15 11
-16 -13 -10 -31 8 -45 -7 -28 -29 10 -11 16 -12 26 -3 11 9 14 8 14 -5 0 -19
-40 -22 -58 -4 -25 25 -7 68 29 68 9 0 23 -7 30 -17z m78 2 c-1 -5 -12 -9 -23
-7 -17 2 -16 -1 7 -13 16 -9 26 -22 24 -28 -5 -16 -67 -22 -67 -7 0 7 8 9 20
5 11 -4 20 -2 20 4 0 6 -6 11 -14 11 -19 0 -29 17 -22 36 7 17 58 16 55 -1z
m6191 1 c6 -8 10 -25 8 -38 -2 -18 -10 -24 -35 -26 -28 -3 -33 1 -39 23 -11
45 37 75 66 41z m100 -7 c14 -25 -4 -59 -30 -59 -11 0 -20 -7 -20 -15 0 -8 -4
-15 -9 -15 -8 0 -20 97 -13 104 1 2 16 3 32 4 20 0 33 -6 40 -19z m208 -20 c3
-31 0 -37 -20 -41 -13 -2 -29 -3 -36 0 -20 6 -14 38 11 51 l22 11 -22 -6 c-13
-3 -23 -1 -23 4 0 16 14 23 40 20 21 -3 25 -9 28 -39z m90 -1 c2 -22 -1 -38
-7 -38 -6 0 -11 14 -11 30 0 20 -5 30 -15 30 -10 0 -15 -10 -15 -30 0 -16 -4
-30 -10 -30 -5 0 -10 18 -10 39 0 38 1 39 33 38 29 -2 32 -5 35 -39z m76 36
c23 -9 10 -23 -17 -17 -18 3 -18 2 6 -12 16 -9 26 -22 24 -28 -5 -16 -67 -22
-67 -6 0 6 8 9 20 6 11 -3 20 -1 20 4 0 5 -6 9 -14 9 -19 0 -29 17 -22 35 6
16 24 19 50 9z m-7481 -409 c20 -18 20 -20 4 -23 -10 -2 -24 2 -32 8 -12 10
-15 9 -15 -7 0 -11 11 -25 24 -31 37 -17 44 -52 15 -74 -13 -10 -30 -23 -36
-28 -9 -8 -13 -8 -13 0 0 5 -5 10 -12 10 -14 0 -48 30 -48 42 0 4 9 8 20 8 11
0 20 -4 20 -10 0 -5 5 -10 10 -10 19 0 10 39 -10 45 -43 14 -46 85 -4 85 8 0
17 7 20 15 6 15 11 13 57 -30z m3290 12 c37 -24 35 -41 -3 -33 -40 7 -40 -13
0 -36 39 -22 38 -50 -2 -81 -33 -26 -33 -26 -81 18 -20 18 -20 20 -4 23 10 2
24 -2 32 -8 12 -10 15 -9 15 9 0 14 -9 25 -25 31 -34 13 -33 47 3 80 15 14 29
23 32 20 3 -3 17 -13 33 -23z m-1353 15 c0 -4 10 -12 22 -17 33 -15 37 -39 4
-33 -34 7 -34 -10 1 -37 33 -27 27 -63 -14 -86 -29 -16 -31 -16 -74 24 -21 20
-22 22 -6 25 10 2 24 -2 32 -8 12 -10 15 -9 15 9 0 13 -10 26 -25 33 -34 15
-33 51 3 77 29 22 42 26 42 13z m2991 -13 c16 -11 29 -25 29 -30 0 -14 -38
-11 -43 4 -3 6 -6 3 -6 -8 -1 -10 11 -29 26 -40 33 -27 27 -63 -14 -86 -29
-16 -31 -16 -74 24 -21 20 -22 22 -6 25 10 2 24 -2 32 -8 12 -10 15 -9 15 9 0
13 -10 26 -25 33 -34 15 -33 51 3 77 33 25 28 25 63 0z m-4789 -11 c21 -21 21
-23 5 -26 -10 -2 -24 2 -32 8 -18 15 -45 -3 -45 -28 0 -12 3 -13 12 -4 27 27
78 -2 78 -44 0 -26 -34 -54 -66 -54 -55 0 -79 105 -34 150 26 26 55 25 82 -2z
m108 -63 c0 -69 -3 -85 -15 -85 -12 0 -15 14 -15 65 0 65 -6 75 -28 53 -9 -9
-12 -8 -12 4 0 9 10 24 22 32 43 30 48 22 48 -69z m190 65 c24 -24 25 -33 4
-51 -14 -11 -14 -13 0 -21 35 -19 3 -78 -41 -78 -53 0 -83 46 -52 77 8 8 7 17
-3 32 -12 20 -10 24 11 42 30 24 56 24 81 -1z m150 -35 c0 -30 5 -55 10 -55 6
0 10 -7 10 -15 0 -8 -4 -15 -10 -15 -5 0 -10 -7 -10 -15 0 -8 -7 -15 -15 -15
-8 0 -15 7 -15 15 0 11 -11 15 -40 15 -29 0 -40 4 -40 15 0 27 72 125 91 125
16 0 19 -8 19 -55z m144 34 c52 -41 26 -149 -36 -149 -29 0 -42 9 -57 37 -19
36 -13 82 14 108 29 30 45 31 79 4z m214 -37 c2 -28 7 -52 13 -52 5 0 9 -7 9
-15 0 -8 -4 -15 -10 -15 -5 0 -10 -7 -10 -16 0 -10 -7 -14 -17 -12 -10 2 -17
10 -15 16 1 8 -12 12 -38 12 -51 0 -52 17 -4 88 46 69 68 68 72 -6z m1132 -27
c0 -69 -3 -85 -15 -85 -12 0 -15 14 -15 65 0 65 -6 75 -28 53 -9 -9 -12 -8
-12 4 0 9 10 24 22 32 43 30 48 22 48 -69z m148 30 c2 -27 8 -53 14 -56 6 -4
4 -16 -7 -33 -20 -29 -33 -33 -41 -11 -4 9 -19 15 -39 15 -19 0 -36 4 -40 10
-6 9 33 78 63 113 28 31 47 17 50 -38z m197 30 c27 -26 33 -72 14 -108 -36
-68 -119 -37 -119 45 0 42 34 88 65 88 9 0 27 -11 40 -25z m155 -30 c0 -30 5
-55 10 -55 6 0 10 -7 10 -15 0 -8 -4 -15 -10 -15 -5 0 -10 -7 -10 -15 0 -8 -7
-15 -15 -15 -8 0 -15 7 -15 15 0 11 -11 15 -40 15 -50 0 -51 12 -5 85 24 36
42 55 55 55 18 0 20 -7 20 -55z m145 30 c49 -48 23 -145 -37 -145 -42 0 -68
35 -68 90 0 34 38 80 65 80 9 0 27 -11 40 -25z m725 8 c0 -27 -71 -153 -85
-153 -20 0 -20 1 15 70 17 33 30 62 30 65 0 3 -18 5 -40 5 -38 0 -49 8 -33 23
12 13 113 4 113 -10z m120 -3 c14 -14 20 -33 20 -62 0 -73 -63 -114 -105 -68
-22 24 -12 39 15 22 27 -17 38 -15 50 8 10 18 8 19 -20 14 -18 -4 -36 -1 -45
6 -23 19 -19 66 7 84 30 21 54 20 78 -4z m144 -1 c52 -41 26 -149 -36 -149
-29 0 -42 9 -57 37 -19 36 -13 82 14 108 29 30 45 31 79 4z m216 -34 c0 -30 5
-55 10 -55 6 0 10 -7 10 -15 0 -8 -4 -15 -10 -15 -5 0 -10 -7 -10 -15 0 -8 -7
-15 -15 -15 -8 0 -15 7 -15 15 0 11 -11 15 -40 15 -29 0 -40 4 -40 15 0 27 72
125 91 125 16 0 19 -8 19 -55z m145 30 c39 -38 28 -126 -17 -141 -52 -16 -88
20 -88 87 0 33 38 79 65 79 9 0 27 -11 40 -25z m146 6 c21 -17 22 -22 11 -41
-11 -19 -11 -25 3 -40 13 -14 14 -23 6 -38 -20 -37 -77 -44 -105 -13 -19 21
-14 61 7 61 8 0 8 3 -1 12 -18 18 -15 55 6 67 26 16 47 13 73 -8z m157 -69 c3
-77 2 -82 -18 -82 -18 0 -20 6 -20 67 0 52 -3 64 -12 55 -16 -16 -28 -15 -28
2 0 17 40 46 60 43 12 -2 16 -21 18 -85z m702 68 c27 -27 26 -34 -16 -80 l-36
-40 37 0 c61 0 37 -25 -28 -28 -70 -4 -73 8 -17 63 22 21 40 45 40 52 0 21
-31 28 -42 10 -11 -21 -38 -22 -38 -3 0 18 38 46 62 46 10 0 27 -9 38 -20z
m148 3 c2 -9 -8 -13 -32 -13 -29 0 -36 -4 -36 -19 0 -14 5 -18 20 -14 26 7 60
-23 60 -53 0 -26 -34 -54 -66 -54 -23 0 -61 36 -50 47 4 4 16 2 26 -5 26 -16
47 -15 53 1 8 22 -8 39 -34 37 -45 -4 -49 -2 -43 33 10 57 11 58 56 55 23 -2
43 -9 46 -15z m-4050 -70 l-1 -48 -4 43 c-3 27 -8 40 -15 36 -7 -4 -8 -2 -4 4
15 25 26 10 24 -35z m82 37 c0 -5 -4 -10 -10 -10 -5 0 -14 -9 -20 -20 -9 -16
-8 -20 5 -20 8 0 15 8 16 18 0 14 2 14 8 -3 5 -11 6 -27 3 -34 -4 -10 -7 -11
-10 -3 -2 7 -12 12 -23 12 -23 0 -24 4 -2 41 17 29 33 38 33 19z m7499 -14 c9
-11 6 -12 -14 -8 -22 4 -25 1 -25 -23 0 -24 3 -27 25 -23 28 6 34 -6 9 -16
-38 -15 -62 52 -26 73 9 6 18 11 18 11 1 0 7 -6 13 -14z m221 -7 l-25 -6 28
-11 c31 -13 34 -24 11 -42 -12 -11 -18 -10 -32 5 -12 13 -12 15 -2 8 10 -7 21
-8 30 -3 11 7 8 11 -13 19 -15 6 -27 14 -27 19 0 16 23 30 39 24 13 -5 11 -7
-9 -13z m-7877 -25 c-4 -10 -8 -10 -17 -1 -9 8 -10 14 -2 23 13 14 27 -2 19
-22z m5980 29 c-27 -5 -31 -22 -5 -24 15 -1 15 -2 0 -6 -9 -2 -19 -12 -21 -21
-3 -9 -5 0 -6 21 -1 34 1 37 27 36 23 -2 24 -2 5 -6z m74 -31 c8 -19 9 -32 3
-32 -5 0 -12 11 -16 25 -3 14 -10 22 -15 19 -5 -3 -7 -9 -4 -14 3 -4 -2 -13
-9 -19 -12 -10 -13 -7 -3 24 12 42 26 41 44 -3z m86 14 c3 25 4 24 6 -8 1 -43
-9 -48 -32 -15 l-16 22 0 -22 c-1 -13 -5 -23 -9 -23 -4 0 -6 17 -4 37 l5 37
23 -29 22 -28 5 29z m1292 5 c0 -8 -9 -19 -20 -25 -11 -6 -23 -15 -27 -21 -4
-5 -8 7 -8 28 0 36 2 38 28 35 15 -2 27 -9 27 -17z m32 -1 c-6 -22 16 -59 27
-42 3 5 7 22 8 36 3 36 18 33 18 -4 0 -34 -25 -53 -52 -39 -20 11 -25 69 -7
69 6 0 9 -9 6 -20z m118 -17 c0 -35 -9 -43 -18 -18 -4 8 -2 17 3 20 15 9 12
25 -5 25 -10 0 -15 -10 -15 -30 0 -16 -4 -30 -8 -30 -4 0 -6 16 -4 36 4 29 8
35 26 32 16 -2 21 -10 21 -35z m135 7 c10 0 21 8 23 18 3 9 5 -1 5 -23 0 -22
-2 -32 -5 -22 -2 9 -13 17 -23 17 -10 0 -21 -8 -23 -17 -3 -10 -5 0 -5 22 0
22 2 32 5 23 2 -10 13 -18 23 -18z m105 -2 c7 -18 11 -35 9 -37 -6 -6 -15 5
-17 21 -2 7 -7 14 -12 15 -6 0 -9 -3 -8 -7 1 -4 -4 -13 -12 -20 -11 -9 -12 -6
-3 24 14 45 25 45 43 4z m133 25 c-10 -2 -18 -9 -18 -14 0 -5 8 -10 18 -10 16
-1 16 -2 0 -6 -22 -5 -24 -23 -3 -23 8 0 15 -4 15 -9 0 -4 -10 -6 -23 -4 -18
4 -23 11 -24 39 -1 31 2 34 25 33 17 -1 21 -3 10 -6z m70 0 c-22 -5 -24 -23
-4 -23 23 0 30 -21 12 -38 -15 -15 -17 -15 -33 3 -17 18 -17 18 0 5 13 -10 21
-10 29 -2 8 8 4 14 -15 23 -38 17 -34 40 7 38 17 -1 18 -2 4 -6z m572 -2 c0
-5 -9 -7 -20 -4 -11 3 -20 1 -20 -5 0 -5 9 -12 20 -15 24 -6 27 -32 4 -41 -18
-7 -34 0 -34 16 0 7 4 7 13 -1 8 -6 17 -8 20 -4 12 11 7 21 -13 26 -29 8 -26
37 5 37 14 0 25 -4 25 -9z m75 -10 c0 -8 -9 -19 -20 -25 -11 -6 -23 -15 -27
-21 -4 -5 -8 7 -8 28 0 36 2 38 28 35 15 -2 27 -9 27 -17z m45 9 l-25 -8 24
-8 25 -7 -23 -9 c-12 -4 -19 -12 -16 -18 3 -5 1 -10 -4 -10 -6 0 -11 16 -11
35 0 32 3 35 28 34 l27 -1 -25 -8z m69 -12 l15 -23 7 25 c6 21 7 18 8 -15 l0
-40 -18 23 c-11 12 -22 22 -24 22 -3 0 -8 -10 -10 -22 -3 -14 -5 -9 -6 15 -1
42 8 47 28 15z m112 6 c14 -17 3 -44 -22 -53 -9 -3 -9 1 3 13 21 20 13 46 -13
46 -15 0 -18 -6 -15 -30 2 -16 -1 -30 -5 -30 -5 0 -9 16 -9 35 0 30 3 35 24
35 13 0 29 -7 37 -16z m-8620 -11 c13 -17 13 -17 -6 -3 -11 8 -22 16 -24 17
-2 2 0 3 6 3 6 0 17 -8 24 -17z m-42 0 c-4 -25 3 -35 21 -30 11 3 18 1 14 -4
-9 -15 -33 -10 -43 10 -6 10 -7 21 -4 25 8 8 13 8 12 -1z m145 -33 c-6 -6 -10
-3 -10 10 0 13 4 16 10 10 7 -7 7 -13 0 -20z m213 -16 c2 -5 -8 -10 -22 -10
-21 -2 -24 1 -14 12 13 15 31 14 36 -2z m1332 3 c8 -11 5 -14 -19 -14 -24 0
-27 3 -19 14 6 7 15 13 19 13 4 0 13 -6 19 -13z m1640 0 c8 -11 5 -14 -19 -14
-24 0 -27 3 -19 14 6 7 15 13 19 13 4 0 13 -6 19 -13z m1680 -1 c10 -11 7 -14
-14 -12 -25 1 -31 7 -18 19 10 11 19 8 32 -7z m3491 4 c0 -5 -2 -10 -4 -10 -3
0 -8 5 -11 10 -3 6 -1 10 4 10 6 0 11 -4 11 -10z m-9024 -11 c10 -17 -13 -36
-27 -22 -12 12 -4 33 11 33 5 0 12 -5 16 -11z m3480 0 c10 -17 -13 -36 -27
-22 -12 12 -4 33 11 33 5 0 12 -5 16 -11z m-3984 -30 c-4 -26 -18 -46 -27 -37
-3 2 -2 19 1 37 8 36 31 37 26 0z m1988 15 c0 -23 -20 -55 -30 -49 -5 3 -7 12
-5 20 3 8 7 22 10 30 6 20 25 19 25 -1z m1490 -3 c0 -26 -10 -51 -21 -51 -10
0 -12 31 -3 54 9 22 24 20 24 -3z m-2090 -83 c0 -16 -23 -19 -37 -5 -14 13
-13 15 11 14 14 -1 26 -5 26 -9z m1325 -7 c-13 -14 -17 -14 -30 0 -14 14 -13
16 15 16 28 0 29 -2 15 -16z m1640 0 c-13 -14 -17 -14 -30 0 -14 14 -13 16 15
16 28 0 29 -2 15 -16z m1682 2 c-8 -9 -20 -12 -26 -9 -19 12 -12 21 15 23 24
1 25 -1 11 -14z m-4430 -45 c4 -7 8 -31 9 -52 0 -37 0 -38 -14 -18 -18 28 -32
28 -32 0 0 -12 -3 -18 -7 -14 -8 8 -13 77 -6 89 7 12 41 8 50 -5z m517 6 c9
-3 16 -11 16 -16 0 -6 -7 -5 -15 2 -13 11 -18 11 -28 0 -8 -9 -9 -14 -1 -17
29 -10 47 -31 41 -47 -8 -21 -48 -18 -55 4 -5 13 -3 13 11 2 9 -8 21 -11 27
-7 16 10 12 22 -10 28 -26 7 -37 36 -19 48 17 11 14 10 33 3z m817 -49 c9 -25
13 -45 9 -45 -4 0 -10 7 -14 15 -7 20 -33 19 -45 -2 -16 -27 -13 -4 5 44 9 24
19 41 23 38 3 -3 13 -26 22 -50z m449 46 c0 -5 -7 -8 -16 -7 -27 2 -28 -23 -2
-33 l23 -10 -23 0 c-30 -1 -24 -23 9 -32 21 -6 21 -7 -8 -8 -32 -1 -33 0 -33
42 0 24 3 47 7 50 9 10 43 8 43 -2z m496 1 c7 -4 11 -26 11 -48 -1 -38 -3 -40
-15 -23 -17 25 -30 24 -35 -3 -2 -13 -5 1 -6 30 -1 43 2 52 17 52 9 0 22 -4
28 -8z m698 -50 c11 -34 12 -42 2 -29 -7 9 -20 17 -29 17 -9 0 -21 -8 -26 -17
-15 -26 -13 -13 5 40 9 26 20 45 24 42 4 -3 15 -26 24 -53z m296 48 c0 -5 -9
-10 -20 -10 -11 0 -20 -7 -20 -16 0 -8 4 -13 8 -10 4 2 14 1 22 -5 12 -7 10
-9 -7 -9 -13 0 -23 -6 -23 -14 0 -8 10 -17 23 -19 15 -4 13 -5 -7 -4 -27 2
-29 5 -29 40 1 20 2 42 2 47 1 6 12 10 26 10 14 0 25 -4 25 -10z m564 -3 c17
-12 14 -46 -5 -48 -5 -1 -15 -2 -21 -3 -7 0 -13 -6 -13 -13 0 -6 -3 -15 -7
-19 -5 -4 -8 13 -8 38 0 60 16 73 54 45z m246 2 c0 -6 -9 -9 -20 -6 -15 4 -20
0 -20 -14 0 -11 7 -19 18 -20 16 -1 16 -2 0 -6 -10 -2 -18 -13 -18 -24 0 -10
-4 -19 -9 -19 -10 0 -13 78 -4 93 7 11 53 8 53 -4z m-6003 -31 c-3 -7 -5 -2
-5 12 0 14 2 19 5 13 2 -7 2 -19 0 -25z m30 -30 c-2 -13 -4 -3 -4 22 0 25 2
35 4 23 2 -13 2 -33 0 -45z m2007 50 c-5 -8 -2 -9 9 -5 10 4 22 -2 31 -15 20
-28 4 -58 -29 -58 -23 0 -25 4 -25 45 0 25 5 45 11 45 5 0 7 -5 3 -12z m116
-27 c0 -22 -4 -43 -10 -46 -6 -4 -10 12 -10 39 0 25 5 46 10 46 6 0 10 -18 10
-39z m30 -6 c0 -25 -4 -45 -10 -45 -5 0 -10 20 -10 45 0 25 5 45 10 45 6 0 10
-20 10 -45z m150 1 c0 -41 -2 -43 -27 -42 -24 1 -28 5 -28 31 0 23 5 31 23 33
12 2 22 8 22 13 0 5 2 9 5 9 3 0 5 -20 5 -44z m255 23 c15 -3 20 -12 20 -34 0
-26 -4 -30 -27 -31 -27 -1 -28 1 -28 45 0 25 4 41 8 35 4 -7 16 -13 27 -15z
m1007 -16 c-5 -59 -10 -63 -11 -10 -1 26 3 47 7 47 4 0 6 -17 4 -37z m732 1
c-4 -14 -1 -31 7 -41 12 -14 12 -16 -1 -11 -15 5 -30 53 -22 75 8 23 22 2 16
-23z m-2324 -10 c0 -8 -9 -14 -20 -14 -11 0 -20 -5 -20 -11 0 -7 9 -9 21 -6
16 4 19 3 11 -5 -13 -13 -40 -4 -48 17 -9 23 25 58 43 44 7 -6 13 -18 13 -25z
m1560 -10 c0 -30 -3 -34 -25 -34 -18 0 -25 5 -25 20 0 13 7 20 20 20 11 0 20
5 20 11 0 6 -9 9 -20 6 -22 -6 -28 8 -7 16 24 8 37 -6 37 -39z m-3439 -27 c15
-4 14 -4 -3 -3 -18 1 -24 8 -25 34 -3 30 -3 31 3 3 3 -19 13 -31 25 -34z m229
41 c0 -6 -6 -5 -15 2 -8 7 -15 14 -15 16 0 2 7 1 15 -2 8 -4 15 -11 15 -16z
m27 -25 c-3 -10 -5 -2 -5 17 0 19 2 27 5 18 2 -10 2 -26 0 -35z m80 11 c1 -25
0 -26 -4 -4 -3 14 -10 29 -17 33 -7 6 -6 7 4 4 8 -2 16 -16 17 -33z m43 21
c-7 -8 -10 -22 -6 -30 3 -9 2 -13 -4 -10 -14 8 -13 28 2 43 17 17 23 15 8 -3z
m37 -22 c-3 -10 -5 -4 -5 12 0 17 2 24 5 18 2 -7 2 -21 0 -30z m1570 -15 c-2
-13 -4 -5 -4 17 -1 22 1 32 4 23 2 -10 2 -28 0 -40z m141 30 c3 -14 -3 -18
-23 -18 -16 0 -24 -4 -19 -11 3 -6 15 -9 25 -6 11 3 17 1 13 -4 -17 -28 -60 8
-49 41 8 26 48 24 53 -2z m250 -36 c8 -2 12 7 12 27 0 17 5 31 10 31 6 0 10
-16 10 -36 0 -33 -2 -35 -27 -32 -24 3 -28 8 -30 38 -1 33 -1 33 5 6 4 -16 13
-31 20 -34z m158 51 c-19 -5 -18 -6 4 -23 13 -9 20 -22 16 -29 -9 -13 -46 -15
-46 -1 0 5 7 7 15 4 8 -4 15 -2 15 4 0 5 -7 12 -15 16 -24 9 -18 36 8 35 19
-1 19 -2 3 -6z m682 -32 c2 -22 0 -31 -8 -26 -6 4 -10 16 -8 28 5 35 -26 27
-33 -8 -6 -29 -7 -28 -8 8 -1 36 1 38 27 35 23 -2 28 -8 30 -37z m70 2 c-1
-37 -1 -37 -5 -5 -3 18 -10 32 -18 32 -8 0 -15 -14 -18 -32 -4 -32 -4 -32 -5
5 -2 33 0 37 23 37 23 0 25 -4 23 -37z m42 6 c0 -39 22 -34 31 7 6 28 7 28 8
-7 1 -33 -1 -36 -26 -35 -24 1 -28 6 -31 34 -2 18 1 32 7 32 6 0 11 -14 11
-31z m328 -7 c3 -31 2 -33 -24 -30 -37 4 -42 25 -10 38 31 11 35 25 6 17 -11
-3 -20 -1 -20 5 0 5 10 8 23 6 17 -2 23 -11 25 -36z m44 26 c-5 -7 -12 -24
-15 -38 -3 -18 -5 -15 -6 13 -1 28 3 37 15 37 12 0 14 -3 6 -12z m86 -25 c2
-19 -1 -33 -7 -33 -6 0 -11 14 -11 31 0 39 -22 34 -31 -7 -6 -27 -7 -26 -8 9
-1 36 1 38 27 35 22 -2 28 -8 30 -35z m32 0 c0 -20 -3 -33 -7 -30 -9 10 -10
67 0 67 4 0 7 -16 7 -37z m68 0 c-1 -37 -1 -37 -5 -5 -3 18 -10 32 -18 32 -8
0 -15 -14 -18 -32 -4 -32 -4 -32 -5 5 -2 33 0 37 23 37 23 0 25 -4 23 -37z
m82 -7 c0 -45 -22 -68 -43 -47 -6 6 -3 9 8 8 10 -1 20 3 22 9 2 7 -3 11 -13
10 -21 -1 -39 26 -31 48 4 9 17 16 32 16 23 0 25 -4 25 -44z m196 18 c8 -29
-6 -47 -32 -42 -26 5 -29 28 -5 35 12 3 21 10 21 15 0 6 -9 8 -20 5 -11 -3
-18 -1 -14 4 12 19 44 9 50 -17z m122 4 c3 -14 -3 -18 -23 -18 -16 0 -24 -4
-20 -10 4 -6 16 -8 28 -4 17 5 19 3 11 -6 -27 -28 -65 7 -50 46 8 21 50 14 54
-8z m522 -4 c0 -22 17 -17 23 8 4 12 9 20 12 17 7 -8 -15 -69 -25 -69 -4 0
-10 8 -13 18 -2 9 -8 26 -13 36 -5 14 -4 17 4 12 7 -4 12 -14 12 -22z m110
-19 c0 -48 -20 -69 -43 -45 -9 9 -8 11 7 8 10 -1 21 2 23 8 2 7 -3 11 -13 10
-21 -1 -39 26 -31 48 4 9 17 16 32 16 23 0 25 -3 25 -45z m225 10 c0 -25 -4
-30 -24 -30 -31 0 -40 25 -12 32 26 7 27 20 4 27 -11 3 -7 4 7 3 21 -2 25 -7
25 -32z m48 27 c-6 -4 -13 -21 -16 -37 -4 -27 -4 -27 -6 8 -1 29 3 37 17 37
11 0 13 -3 5 -8z m73 -32 l2 -35 -5 33 c-5 38 -33 45 -33 8 0 -14 -4 -28 -10
-31 -11 -7 -14 48 -3 59 4 4 16 6 28 4 15 -2 20 -11 21 -38z m31 -12 c-2 -13
-4 -5 -4 17 -1 22 1 32 4 23 2 -10 2 -28 0 -40z m80 12 c1 -34 1 -34 -5 -5 -4
17 -14 30 -22 30 -8 0 -18 -13 -21 -30 -6 -29 -7 -28 -8 8 -1 36 1 38 27 35
23 -3 27 -8 29 -38z m81 -1 c-3 -48 -29 -73 -50 -50 -11 12 -10 13 4 8 18 -6
34 10 32 33 -1 8 -2 21 -3 28 0 6 -8 12 -16 12 -18 0 -20 -31 -3 -48 9 -9 9
-12 0 -12 -6 0 -16 9 -22 21 -15 26 3 49 37 49 22 0 24 -3 21 -41z m48 34
c-19 -5 -18 -6 4 -23 13 -9 20 -22 16 -29 -9 -14 -43 -14 -52 0 -4 8 0 9 15 4
24 -7 29 10 6 19 -24 9 -18 36 8 35 19 -1 19 -2 3 -6z m212 -15 c3 -14 -3 -18
-23 -18 -16 0 -24 -4 -20 -10 4 -6 16 -8 28 -4 17 5 19 4 10 -6 -24 -25 -62
11 -49 46 8 21 50 14 54 -8z m44 10 c-5 -7 -12 -24 -15 -38 -3 -18 -5 -15 -6
13 -1 28 3 37 15 37 12 0 14 -3 6 -12z m190 -12 c6 -32 -5 -49 -28 -44 -27 5
-31 38 -5 38 12 0 21 5 21 11 0 6 -9 9 -20 6 -11 -3 -18 -1 -14 4 11 19 42 9
46 -15z m75 -16 c1 -34 1 -34 -5 -5 -4 17 -14 30 -22 30 -8 0 -18 -13 -21 -30
-6 -29 -7 -28 -8 8 -1 36 1 38 27 35 23 -3 27 -8 29 -38z m-6188 -15 c0 -5 -4
-3 -9 5 -5 8 -9 22 -9 30 0 16 17 -16 18 -35z m288 8 c-3 -10 -5 -4 -5 12 0
17 2 24 5 18 2 -7 2 -21 0 -30z m50 0 c-3 -10 -5 -4 -5 12 0 17 2 24 5 18 2
-7 2 -21 0 -30z m-396 -6 c-10 -9 -11 -8 -5 6 3 10 9 15 12 12 3 -3 0 -11 -7
-18z m272 8 c-3 -9 -8 -14 -10 -11 -3 3 -2 9 2 15 9 16 15 13 8 -4z m435 -10
c-3 -3 -9 2 -12 12 -6 14 -5 15 5 6 7 -7 10 -15 7 -18z m4472 -5 c0 -5 -4 -10
-10 -10 -5 0 -10 5 -10 10 0 6 5 10 10 10 6 0 10 -4 10 -10z m-4549 -23 c-10
-9 -11 -8 -5 6 3 10 9 15 12 12 3 -3 0 -11 -7 -18z m6769 -57 c24 -24 26 -57
3 -82 -33 -37 -103 -11 -103 39 0 28 33 63 60 63 11 0 29 -9 40 -20z m1754
-66 c3 -9 -3 -27 -15 -42 l-21 -27 21 -3 c31 -5 15 -22 -20 -22 -36 0 -37 9
-4 40 27 25 34 60 12 60 -7 0 -18 -5 -25 -12 -7 -7 -12 -8 -12 -2 0 28 54 34
64 8z m84 -7 c2 -11 -6 -30 -19 -43 l-22 -24 21 0 c12 0 22 -4 22 -10 0 -5
-13 -10 -30 -10 -36 0 -37 4 -5 42 14 16 25 36 25 44 0 17 -22 18 -38 2 -7 -7
-12 -8 -12 -2 0 30 53 30 58 1z m276 14 c3 -4 -6 -6 -19 -3 -34 6 -34 -25 -1
-34 32 -8 42 -35 20 -51 -10 -7 -20 -11 -23 -8 -2 3 4 12 15 20 18 13 18 14
-13 25 -31 11 -43 36 -26 53 9 10 41 9 47 -2z m66 -1 c0 -5 -8 -10 -17 -10
-15 0 -16 2 -3 10 19 12 20 12 20 0z m128 -2 c20 -20 12 -88 -10 -88 -6 0 -6
6 1 14 20 23 10 71 -14 71 -25 0 -33 -48 -13 -72 11 -14 11 -15 -2 -11 -8 2
-16 19 -18 37 -5 50 27 78 56 49z m99 -35 c0 -24 -2 -45 -7 -48 -4 -3 -6 4 -3
15 3 12 0 20 -7 20 -10 0 -10 3 0 15 14 17 5 35 -17 35 -11 0 -14 -6 -9 -24 3
-14 1 -28 -4 -31 -8 -5 -7 -11 1 -21 7 -9 8 -14 1 -14 -18 0 -25 20 -12 35 6
8 9 19 5 25 -12 19 4 42 27 38 19 -3 23 -10 25 -45z m93 42 c0 -12 -45 -95
-52 -95 -4 0 1 15 12 33 27 43 25 55 -7 60 -23 3 -21 4 10 6 20 0 37 -1 37 -4z
m98 -7 c13 -13 16 -47 6 -72 -7 -18 -49 -22 -59 -6 -4 7 2 9 18 5 26 -7 52 15
28 23 -11 4 -11 6 -1 12 18 11 4 42 -17 38 -11 -2 -18 -12 -17 -25 0 -12 -3
-20 -8 -17 -19 12 2 54 27 54 6 0 16 -5 23 -12z m99 -23 c1 -21 0 -23 -4 -7
-6 28 -32 40 -44 21 -5 -8 -2 -20 8 -31 20 -22 10 -24 -11 -2 -22 21 -3 56 27
52 17 -2 22 -10 24 -33z m-2672 -57 c15 -14 27 -35 28 -53 l2 -30 -95 0 c-101
0 -108 4 -87 50 26 56 105 73 152 33z m2670 3 c-3 -6 -11 -11 -16 -11 -5 0 -4
6 3 14 14 16 24 13 13 -3z m-620 -1 c3 -5 1 -10 -4 -10 -6 0 -11 5 -11 10 0 6
2 10 4 10 3 0 8 -4 11 -10z m580 0 c3 -5 1 -10 -4 -10 -6 0 -11 5 -11 10 0 6
2 10 4 10 3 0 8 -4 11 -10z m-9995 -191 c12 -8 10 -9 -7 -4 -13 3 -23 2 -23
-3 0 -5 10 -16 23 -25 21 -14 21 -16 5 -33 -14 -14 -20 -15 -30 -6 -9 9 -7 12
10 12 27 0 29 16 2 25 -20 6 -26 25 -13 38 9 9 15 9 33 -4z m66 -1 c5 -7 9
-24 9 -38 0 -18 -6 -26 -22 -28 -13 -2 -23 1 -23 6 0 6 9 8 20 5 11 -3 20 0
20 6 0 6 -5 11 -11 11 -8 0 -8 4 0 14 14 17 -2 32 -21 20 -7 -4 -8 -3 -4 4 9
15 21 15 32 0z m92 5 c-10 -2 -18 -12 -18 -20 0 -9 -3 -14 -6 -10 -12 11 5 37
23 36 17 -1 17 -2 1 -6z m83 -17 c-10 -12 -10 -20 0 -38 12 -23 12 -23 -9 -5
-20 18 -20 18 -25 0 -3 -10 -5 0 -5 22 0 22 2 32 5 22 4 -18 6 -17 20 3 8 12
17 19 20 16 3 -3 0 -12 -6 -20z m-68 -47 c-6 -6 -19 -9 -29 -6 -16 4 -15 5 4
6 24 1 28 10 12 29 -5 7 -2 5 7 -3 13 -11 14 -18 6 -26z m3485 -76 c6 -32 22
-112 36 -178 15 -66 28 -129 31 -140 2 -11 8 -40 14 -65 10 -48 45 -215 60
-290 5 -25 13 -53 16 -62 4 -10 3 -18 -2 -18 -5 0 -17 37 -26 83 -9 45 -19 91
-22 102 -2 11 -16 74 -30 140 -14 66 -37 172 -51 235 -14 63 -28 134 -31 157
-7 53 -29 48 -38 -10 -6 -37 -39 -188 -107 -492 -38 -171 -46 -200 -47 -177
-1 20 23 142 49 247 11 46 31 136 55 245 9 41 20 91 25 110 5 19 14 59 21 89
8 36 14 49 20 40 6 -10 9 -8 9 9 0 15 -4 21 -12 16 -7 -4 -8 -3 -4 4 14 23 23
11 34 -45z m3680 -129 c44 -31 16 -104 -40 -104 -24 0 -58 35 -58 60 0 25 34
60 58 60 10 0 28 -7 40 -16z m1740 -56 c18 -18 15 -39 -10 -65 l-21 -23 21 0
c12 0 22 -4 22 -10 0 -11 -20 -13 -44 -4 -14 6 -13 11 9 40 14 18 25 37 25 43
0 15 -23 14 -38 -1 -7 -7 -12 -8 -12 -2 0 11 20 34 30 34 3 0 11 -5 18 -12z
m102 -7 c0 -4 -10 -7 -21 -7 -12 1 -24 -5 -26 -12 -3 -7 1 -10 10 -6 14 5 47
-20 47 -36 0 -10 -28 -40 -37 -40 -16 0 -43 36 -43 57 0 29 34 65 55 57 8 -4
15 -9 15 -13z m384 0 c3 -4 -5 -6 -18 -4 -39 8 -38 -14 1 -37 l38 -22 -24 -19
c-17 -14 -27 -16 -42 -9 -28 15 -23 20 11 14 23 -5 30 -3 30 10 0 9 -6 16 -13
16 -8 0 -21 8 -30 18 -13 14 -14 21 -5 30 14 14 44 16 52 3z m98 -16 c8 -19 8
-31 0 -50 -11 -24 -45 -34 -56 -16 -3 4 5 6 18 4 25 -5 37 12 31 43 -2 11 -4
22 -4 27 -1 4 -11 7 -22 7 -17 0 -20 -5 -17 -25 3 -13 1 -22 -3 -19 -11 6 -12
38 -2 47 15 15 44 5 55 -18z m86 2 c2 -11 -6 -29 -18 -42 l-22 -23 24 -5 c17
-3 14 -5 -11 -6 l-35 -1 27 28 c35 37 36 66 2 60 -13 -3 -22 -1 -19 4 10 16
49 4 52 -15z m94 -17 c2 -23 0 -46 -4 -53 -6 -9 -8 -9 -8 1 0 6 -11 12 -25 12
-30 0 -31 5 -5 48 26 43 37 40 42 -8z m121 33 c-7 -2 -21 -2 -30 0 -10 3 -4 5
12 5 17 0 24 -2 18 -5z m65 -45 l-2 -53 -3 48 c-3 31 -8 45 -15 41 -7 -4 -8
-2 -4 4 16 26 26 9 24 -40z m-104 17 c3 -8 1 -15 -4 -15 -6 0 -10 7 -10 15 0
8 2 15 4 15 2 0 6 -7 10 -15z m45 -52 c-13 -15 -45 -18 -53 -4 -3 4 6 6 21 3
24 -5 25 -3 20 24 -5 26 -4 27 9 10 10 -14 11 -23 3 -33z m-2605 -5 c14 -13
28 -35 32 -50 l6 -27 -97 -3 c-53 -2 -98 -2 -100 0 -8 9 17 69 36 85 31 25 92
22 123 -5z m-7269 -18 c3 -5 0 -7 -8 -4 -27 10 -27 -13 -1 -25 14 -6 24 -17
21 -24 -5 -16 -36 -22 -49 -9 -6 6 0 8 16 5 15 -3 26 -1 26 6 0 6 -6 11 -14
11 -22 0 -38 24 -24 38 15 15 25 15 33 2z m70 0 c3 -5 1 -18 -5 -27 -9 -15
-10 -14 -4 6 5 20 3 23 -10 18 -10 -4 -15 -3 -11 3 8 13 22 13 30 0z m75 -11
c-9 -15 -8 -24 1 -35 6 -8 9 -17 6 -21 -4 -3 -9 2 -13 11 -8 21 -21 21 -27 -1
-3 -10 -5 0 -6 22 0 24 3 35 8 27 6 -10 10 -10 21 3 18 21 23 19 10 -6z m-65
-48 c-8 -14 -45 -14 -45 -1 0 5 6 7 14 4 8 -3 17 0 21 6 4 6 9 9 12 6 3 -2 2
-9 -2 -15z m513 2 c56 -9 102 -21 102 -26 0 -5 -8 -6 -17 -2 -10 3 -57 11
-106 17 l-87 11 -94 -91 c-51 -51 -99 -92 -107 -92 -12 0 188 199 201 200 3 0
51 -7 108 -17z m167 -78 c26 -31 41 -54 34 -53 -25 6 -106 108 -85 108 2 0 25
-25 51 -55z m4979 -12 c4 -27 16 -92 27 -147 20 -103 24 -148 10 -111 -4 11
-16 67 -25 125 -23 135 -24 139 -36 120 -7 -11 -10 -7 -10 16 0 30 6 44 21 44
3 0 10 -21 13 -47z m-38 -79 c-4 -20 -10 -34 -13 -30 -3 3 -2 21 1 42 4 20 10
34 13 30 3 -3 2 -21 -1 -42z m-4843 -28 c26 -30 47 -59 47 -65 0 -6 4 -11 10
-11 16 0 84 34 104 53 11 9 26 17 33 17 8 0 23 9 35 20 12 10 25 17 30 14 4
-3 8 0 8 5 0 26 28 7 48 -31 12 -24 35 -64 52 -90 16 -26 23 -45 16 -42 -13 5
-96 138 -96 154 0 5 -21 -4 -47 -20 -26 -17 -52 -30 -59 -30 -7 0 -14 -3 -16
-7 -7 -17 -91 -64 -104 -59 -8 3 -23 20 -34 38 -11 18 -20 29 -20 24 0 -5 -10
4 -22 20 -13 16 -28 35 -35 42 -15 15 -16 22 -5 22 5 0 29 -24 55 -54z m-573
0 c0 -11 -19 -15 -25 -6 -3 5 1 10 9 10 9 0 16 -2 16 -4z m5375 -157 c-14 -68
-32 -153 -40 -189 -9 -36 -22 -97 -29 -136 -7 -39 -16 -76 -19 -80 -3 -5 -8
-29 -12 -53 -3 -24 -15 -85 -26 -134 -10 -50 -19 -94 -19 -99 0 -25 -22 -1
-44 48 -30 65 -30 64 -14 64 6 0 9 -3 5 -6 -3 -4 0 -13 8 -21 8 -8 15 -22 15
-32 0 -10 7 -18 15 -18 8 0 14 5 13 11 -3 16 5 54 81 401 38 171 72 328 76
350 4 22 9 35 12 29 2 -6 -8 -67 -22 -135z m-2531 95 c10 -14 16 -30 14 -36
-2 -6 -14 5 -26 25 -24 42 -14 51 12 11z m-28 -6 c-3 -7 -19 -60 -36 -118 -18
-58 -45 -145 -60 -195 -15 -49 -35 -115 -44 -145 -48 -166 -69 -230 -78 -230
-5 0 -6 6 -2 12 5 7 9 19 10 28 1 8 12 47 24 85 12 39 31 101 41 139 11 38 24
77 30 88 5 10 7 18 4 18 -3 0 1 14 10 30 9 17 13 30 10 30 -4 0 -3 6 2 13 4 6
8 17 9 22 4 24 26 102 33 120 5 11 15 41 21 68 7 26 16 47 21 47 5 0 7 -6 5
-12z m194 -255 c0 -6 9 -15 20 -18 23 -7 27 -25 5 -25 -9 0 -21 12 -28 28 -6
15 -17 32 -23 37 -13 12 -84 121 -84 130 0 3 -9 15 -20 27 -10 12 -17 25 -13
31 6 10 142 -190 143 -210z m-2020 141 c0 -8 5 -14 10 -14 6 0 10 -7 10 -15 0
-8 4 -15 10 -15 5 0 12 -11 16 -25 3 -14 9 -25 14 -25 6 0 23 -36 51 -107 5
-14 5 -23 -1 -23 -5 0 -14 17 -20 39 -5 21 -21 55 -35 75 -14 20 -25 39 -25
41 0 2 -13 24 -30 48 -33 49 -38 66 -15 47 8 -7 15 -19 15 -26z m-1366 7 c4
-5 -3 -7 -14 -4 -26 7 -25 -4 2 -26 12 -10 18 -23 14 -29 -9 -14 -33 -16 -40
-3 -4 5 3 7 14 4 26 -7 26 14 0 22 -30 9 -25 45 6 45 7 0 15 -4 18 -9z m71 -1
c3 -5 -1 -20 -10 -34 -15 -23 -15 -25 2 -29 12 -3 9 -5 -9 -6 -33 -1 -35 9 -8
34 26 23 26 39 0 32 -11 -3 -18 -1 -14 4 7 12 31 12 39 -1z m83 3 c-22 -5 -24
-23 -4 -23 19 0 28 -14 20 -34 -7 -18 -30 -21 -39 -6 -3 5 0 7 8 4 8 -3 18 0
22 6 4 7 -2 14 -14 17 -29 8 -28 43 2 42 16 -1 18 -2 5 -6z m81 -9 c-10 -13
-10 -19 0 -36 7 -11 10 -22 7 -25 -3 -3 -8 2 -12 11 -8 21 -21 21 -27 -1 -3
-13 -5 -12 -6 5 0 14 9 32 22 43 27 23 34 24 16 3z m7099 0 c28 -19 29 -57 2
-84 -35 -35 -82 -18 -95 32 -5 19 -1 32 14 47 25 25 49 27 79 5z m-1423 -132
c9 -52 14 -96 11 -99 -3 -3 -7 5 -10 18 -32 150 -47 264 -26 199 4 -14 15 -67
25 -118z m-2455 103 c0 -8 -4 -15 -10 -15 -5 0 -7 7 -4 15 4 8 8 15 10 15 2 0
4 -7 4 -15z m385 -109 c9 -43 26 -94 36 -113 21 -38 23 -43 11 -43 -19 0 -83
194 -82 250 1 31 17 -14 35 -94z m5335 84 c0 -5 -9 -10 -19 -10 -11 0 -23 -4
-26 -10 -3 -5 3 -10 13 -10 11 0 25 -7 33 -16 25 -30 -27 -72 -55 -44 -8 9 -4
10 17 4 26 -6 28 -4 25 17 -2 18 -8 23 -25 21 -18 -3 -23 2 -23 21 0 13 3 27
7 30 10 11 53 8 53 -3z m360 -14 c0 -2 -11 -1 -24 1 -36 7 -42 -16 -8 -28 39
-13 47 -35 20 -53 -15 -11 -26 -12 -40 -5 -27 14 -22 19 12 13 23 -5 30 -3 30
9 0 9 -9 18 -19 22 -33 10 -44 31 -26 49 13 12 21 13 36 6 10 -6 19 -12 19
-14z m-450 -36 c0 -27 -3 -50 -8 -50 -4 0 -6 20 -4 45 4 40 2 44 -14 38 -12
-4 -15 -3 -10 5 4 7 14 12 22 12 10 0 14 -13 14 -50z m540 40 c0 -5 -7 -7 -15
-4 -8 4 -22 1 -30 -6 -13 -11 -14 -10 -9 4 7 17 54 23 54 6z m51 -4 c-15 -17
2 -31 26 -22 12 5 13 9 3 21 -7 9 -8 15 -2 15 5 0 12 -6 15 -14 6 -15 -6 -29
-35 -39 -23 -8 -23 -26 -2 -34 11 -4 22 1 30 12 15 20 18 16 8 -9 -8 -21 -53
-21 -61 0 -3 8 -1 20 5 26 8 8 8 15 1 24 -12 14 -4 34 13 34 7 0 6 -5 -1 -14z
m89 -7 c-24 -45 14 -94 40 -51 10 15 10 15 8 -3 -2 -12 -12 -21 -26 -23 -30
-5 -50 38 -34 73 6 14 14 25 17 25 3 0 1 -9 -5 -21z m47 -5 c2 -13 1 -15 -4
-4 -3 8 -11 19 -17 23 -7 6 -6 7 4 4 8 -2 16 -12 17 -23z m106 19 c-13 -2 -24
-13 -26 -26 -4 -18 -5 -17 -6 6 -1 23 3 27 27 26 22 -1 23 -2 5 -6z m114 -13
c4 -12 3 -13 -5 -1 -6 8 -19 12 -31 8 -12 -3 -19 -1 -15 5 9 14 47 5 51 -12z
m-6597 -35 c-7 -20 -14 -34 -17 -31 -3 2 0 21 7 41 7 20 14 34 17 31 3 -2 0
-21 -7 -41z m6198 -12 c-9 -45 -69 -41 -67 4 2 25 2 25 6 5 5 -28 32 -40 43
-21 11 16 -8 42 -23 32 -6 -3 -7 -1 -3 5 10 17 48 -5 44 -25z m312 3 c0 -25
-28 -40 -53 -28 -21 11 -20 11 5 6 36 -8 49 20 22 42 -18 14 -18 14 4 4 12 -6
22 -17 22 -24z m85 4 c3 -11 3 -24 0 -30 -8 -12 -42 -13 -49 -1 -3 4 6 6 19 3
30 -5 35 21 8 37 -16 9 -17 10 -1 11 9 0 19 -9 23 -20z m-2668 -34 c12 -11 25
-33 28 -48 l7 -28 -101 0 c-64 0 -101 4 -101 10 0 6 7 24 15 40 30 59 105 72
152 26z m-1974 -61 c4 -8 1 -17 -5 -21 -7 -4 -8 -3 -4 4 4 7 2 12 -3 12 -6 0
-11 5 -11 10 0 15 17 12 23 -5z m-3467 -62 c15 -32 27 -64 27 -70 0 -7 4 -13
9 -13 5 0 6 -4 3 -10 -3 -5 -2 -10 3 -10 9 0 34 -49 34 -67 0 -4 9 -20 19 -35
10 -14 19 -29 19 -32 0 -5 34 -83 47 -108 2 -5 0 -8 -6 -8 -5 0 -15 17 -21 38
-7 20 -18 44 -26 52 -7 8 -13 19 -13 23 0 4 -27 63 -60 131 -34 67 -61 128
-61 134 0 6 -4 13 -8 16 -5 3 -9 -1 -9 -8 0 -22 -25 -76 -35 -76 -5 0 -6 6 -1
13 4 6 8 14 9 17 0 3 4 13 7 23 4 9 9 24 12 32 8 28 24 15 51 -42z m3414 -110
c-17 -65 -33 -125 -35 -133 -23 -101 -26 -112 -32 -107 -2 3 17 95 44 204 26
109 49 188 51 176 2 -12 -11 -75 -28 -140z m-3835 115 c9 -39 6 -31 33 -91 12
-27 22 -52 22 -56 0 -4 11 -35 25 -69 26 -65 32 -93 16 -76 -6 5 -26 59 -47
119 -20 61 -40 115 -44 120 -4 6 -10 19 -12 30 -3 11 -9 28 -13 38 -4 9 -3 17
3 17 5 0 13 -15 17 -32z m3945 -70 c0 -9 4 -18 9 -20 12 -4 62 -128 52 -128
-5 0 -14 15 -21 33 -11 29 -58 134 -81 179 -5 10 -9 23 -9 30 1 18 49 -73 50
-94z m515 -57 c2 -13 18 -98 35 -188 17 -90 30 -169 27 -176 -5 -15 -98 459
-96 493 1 21 19 -48 34 -129z m-2044 62 c6 -16 9 -29 7 -29 -2 -1 4 -10 13
-20 23 -27 111 -204 102 -204 -4 0 -2 -4 5 -9 7 -4 14 -16 16 -25 1 -10 9 -22
17 -27 12 -7 12 -9 -1 -9 -14 0 -104 165 -100 184 1 5 -3 12 -8 15 -10 6 -72
129 -72 143 0 17 11 7 21 -19z m-1228 -3 c54 -6 84 -16 99 -30 12 -11 18 -23
15 -27 -4 -3 -18 4 -31 16 -19 18 -43 24 -125 33 -95 11 -102 10 -116 -8 -9
-11 -14 -14 -15 -6 0 26 24 41 60 36 19 -2 70 -8 113 -14z m-853 -15 c-6 -14
-15 -37 -22 -52 -6 -16 -12 -30 -12 -33 -4 -17 -70 -167 -78 -177 -6 -7 -8
-13 -5 -13 8 0 -41 -114 -52 -118 -11 -4 -9 17 4 38 12 18 95 215 132 313 14
37 29 67 34 67 5 0 4 -11 -1 -25z m663 -49 c-11 -11 -25 -32 -31 -46 -21 -42
-40 -72 -49 -79 -4 -3 -14 -17 -21 -31 -20 -39 -50 -75 -56 -69 -4 3 3 17 14
30 11 13 23 29 28 34 4 6 11 18 15 28 14 37 102 165 110 160 5 -3 0 -15 -10
-27z m-2403 -17 c12 -8 10 -9 -7 -4 -31 8 -37 -10 -8 -23 28 -13 31 -24 12
-40 -8 -7 -18 -7 -27 -2 -12 8 -10 10 8 10 30 0 28 14 -4 29 -21 9 -24 14 -14
26 15 18 20 18 40 4z m68 -1 c8 -8 7 -18 -6 -40 -9 -15 -20 -28 -25 -28 -5 0
1 13 13 29 20 29 13 50 -12 35 -7 -4 -8 -3 -4 4 9 15 19 15 34 0z m73 -12 c-9
-11 -10 -20 -1 -38 10 -21 10 -22 -4 -4 -8 10 -19 15 -25 11 -7 -4 -11 4 -10
22 1 19 3 22 6 10 4 -18 6 -17 20 3 8 12 17 19 20 16 3 -3 0 -12 -6 -20z
m2608 11 c6 -8 8 -17 4 -20 -3 -4 1 -7 10 -7 10 0 17 -4 17 -10 0 -18 -16 -11
-45 20 -21 22 -24 30 -13 30 9 0 21 -6 27 -13z m71 -82 c0 -4 11 -16 26 -27
14 -11 22 -23 19 -26 -8 -8 -85 70 -79 80 5 8 34 -15 34 -27z m3378 -20 c18
-25 28 -45 23 -45 -6 0 -22 16 -37 35 -30 40 -40 43 -49 16 -3 -11 -18 -33
-33 -50 -15 -16 -28 -34 -30 -41 -2 -10 -104 -162 -124 -184 -5 -6 -13 -5 -20
3 -11 10 -10 11 5 6 12 -5 17 -2 17 9 0 9 5 16 11 16 5 0 8 4 5 9 -3 5 5 20
18 34 13 14 21 28 18 31 -3 3 0 6 6 6 7 0 12 7 12 15 0 7 6 18 14 22 8 4 14
12 14 16 -1 14 96 147 107 146 6 0 25 -20 43 -44z m-771 19 c-3 -4 1 -13 9
-21 8 -9 12 -18 9 -22 -7 -6 -35 27 -35 41 0 4 5 8 12 8 6 0 9 -3 5 -6z m824
-96 c7 -13 15 -25 19 -28 16 -13 101 -140 92 -140 -10 0 -129 162 -124 168 2
3 -2 9 -10 13 -9 6 -9 9 -1 9 7 0 18 -10 24 -22z m994 -4 c25 -25 16 -75 -17
-93 -25 -14 -29 -14 -55 5 -34 26 -40 48 -19 79 19 29 66 34 91 9z m-5701 -43
c18 -56 20 -74 5 -49 -18 31 -38 98 -30 98 5 0 16 -22 25 -49z m460 -7 c5 -13
21 -14 113 -8 60 4 112 12 116 18 6 7 7 6 4 -4 -5 -20 -44 -27 -149 -29 -78
-1 -88 1 -98 19 -6 11 -7 20 -1 20 5 0 12 -7 15 -16z m2136 -30 c8 -3 73 -10
144 -14 l129 -9 27 -33 c37 -44 27 -57 -10 -15 -28 33 -30 33 -162 45 -138 12
-268 38 -268 52 0 7 102 -12 140 -26z m1015 -41 c-10 -32 -19 -67 -21 -78 -12
-64 -27 -115 -35 -115 -4 0 -7 6 -4 13 2 6 16 62 30 122 33 134 36 144 42 128
2 -7 -3 -39 -12 -70z m3834 63 c14 -17 4 -43 -25 -67 -16 -13 -15 -15 12 -20
27 -6 26 -7 -10 -8 l-38 -1 27 35 c16 22 24 42 21 52 -5 12 -9 14 -18 5 -17
-17 -33 -15 -18 3 16 19 34 19 49 1z m75 8 c23 -9 20 -48 -5 -70 l-21 -19 28
-6 c27 -6 26 -7 -8 -8 -45 -1 -46 4 -12 40 33 35 27 67 -8 48 -21 -11 -22 -11
-9 4 15 19 14 19 35 11z m585 -8 c9 -11 7 -12 -13 -9 -37 7 -42 -16 -7 -28 35
-12 42 -43 13 -58 -17 -9 -52 7 -52 25 0 4 5 3 12 -4 17 -17 48 -15 48 2 0 8
-9 17 -19 21 -33 10 -44 31 -26 49 20 20 29 20 44 2z m248 -4 c-29 -32 -16
-91 18 -78 13 5 16 15 13 45 -2 22 0 37 4 35 9 -6 11 -56 2 -78 -8 -22 -41
-20 -54 3 -14 28 -12 57 6 75 22 22 31 20 11 -2z m-183 0 c-17 -11 -15 -72 3
-79 24 -9 35 19 16 40 -15 16 -15 17 -1 12 39 -15 25 -69 -16 -63 -16 2 -22
11 -24 36 -4 41 3 62 20 62 9 0 10 -3 2 -8z m36 -2 c0 -5 -2 -10 -4 -10 -3 0
-8 5 -11 10 -3 6 -1 10 4 10 6 0 11 -4 11 -10z m52 -2 c-16 -21 -9 -72 11 -76
26 -5 34 28 11 46 -10 8 -13 12 -5 10 28 -8 37 -36 18 -55 -20 -20 -49 -9 -55
21 -5 26 7 66 19 66 8 0 8 -4 1 -12z m43 2 c3 -5 2 -10 -4 -10 -5 0 -13 5 -16
10 -3 6 -2 10 4 10 5 0 13 -4 16 -10z m-2578 -83 c12 -12 25 -34 28 -49 l7
-28 -101 0 c-74 0 -101 3 -101 13 0 22 40 78 63 87 32 12 79 2 104 -23z
m-2762 -67 c10 -11 16 -20 13 -20 -3 0 14 -21 38 -47 24 -27 67 -85 96 -131
29 -45 74 -115 99 -155 26 -39 44 -74 42 -77 -9 -9 -107 140 -103 156 1 4 -5
11 -14 16 -9 5 -16 13 -16 19 0 11 -93 141 -133 186 -16 17 -27 34 -25 37 1 3
-6 12 -17 20 -11 9 -15 16 -9 16 6 0 19 -9 29 -20z m-4581 -29 c4 -5 -3 -7
-14 -4 -26 7 -25 -4 2 -26 12 -10 18 -23 14 -29 -8 -14 -46 -16 -46 -3 0 5 9
7 20 4 11 -3 20 -1 20 5 0 6 -9 14 -20 17 -30 9 -25 45 6 45 7 0 15 -4 18 -9z
m54 -39 l-1 -37 -4 33 c-2 17 -9 32 -14 32 -6 0 -7 5 -4 10 12 20 25 -1 23
-38z m80 41 c-24 -6 -23 -19 2 -26 11 -3 20 -12 20 -21 0 -21 -28 -32 -43 -17
-9 9 -8 11 4 6 10 -4 20 -1 24 5 4 7 -2 14 -14 17 -29 8 -28 43 2 42 16 -1 18
-2 5 -6z m81 -9 c-10 -13 -10 -19 0 -36 7 -11 10 -22 7 -25 -3 -3 -8 2 -12 11
-8 21 -21 21 -27 -1 -3 -10 -5 0 -6 22 0 24 3 35 8 27 6 -10 10 -10 21 3 7 8
15 15 17 15 3 0 0 -7 -8 -16z m4956 -104 c-3 -11 -8 -32 -11 -46 -7 -39 -32
-94 -42 -94 -5 0 -26 -25 -46 -55 -20 -30 -41 -55 -46 -55 -6 0 -10 -5 -10
-11 0 -16 -47 -69 -54 -62 -3 4 -6 -1 -6 -10 0 -9 -4 -17 -10 -17 -16 0 -11
18 9 32 10 7 20 18 21 23 2 6 38 53 81 107 59 73 81 108 89 144 6 26 13 51 16
56 10 15 15 8 9 -12z m2128 -231 c28 -15 37 -28 37 -55 0 -52 -60 -75 -100
-39 -28 25 -25 60 6 84 31 25 29 24 57 10z m1857 -97 c0 -9 -10 -26 -22 -39
l-21 -23 27 0 c16 0 25 -4 21 -10 -6 -9 -65 -11 -65 -2 0 2 11 18 25 36 14 18
25 38 25 44 0 16 -23 15 -38 0 -9 -9 -12 -9 -12 0 0 6 8 15 17 21 21 11 43 -3
43 -27z m569 24 c9 -11 6 -12 -14 -8 -37 7 -33 -23 5 -37 33 -11 39 -35 12
-50 -12 -6 -25 -5 -42 5 -25 14 -25 14 6 8 43 -8 52 11 14 31 -34 17 -39 39
-12 54 9 6 18 11 18 11 1 0 7 -6 13 -14z m-9633 -8 c5 -7 2 -9 -8 -5 -28 10
-28 -5 -2 -26 22 -17 24 -22 12 -34 -8 -7 -22 -11 -31 -7 -27 10 -20 22 11 17
l27 -4 -28 21 c-22 18 -25 25 -16 36 14 17 25 18 35 2z m4811 -41 c-3 -7 -6
-5 -6 6 -1 9 -5 17 -11 17 -5 0 -10 8 -10 17 0 14 3 13 16 -5 8 -12 13 -28 11
-35z m4163 3 c0 -27 -3 -50 -8 -50 -4 0 -6 18 -4 40 3 32 1 40 -13 40 -9 0
-13 5 -10 10 3 6 13 10 21 10 10 0 14 -13 14 -50z m760 40 c11 -7 7 -9 -15 -7
-19 1 -30 -3 -32 -13 -3 -11 4 -16 24 -15 23 0 28 -4 28 -24 0 -13 -7 -26 -15
-29 -12 -4 -13 -2 -2 9 18 19 15 39 -7 39 -26 0 -36 -17 -21 -35 7 -9 8 -15 2
-15 -22 0 -30 68 -10 88 14 14 28 15 48 2z m95 -40 c0 -40 -3 -45 -24 -48 -13
-2 -28 1 -34 7 -8 8 -3 10 21 5 25 -5 32 -3 32 9 0 8 -6 18 -12 20 -10 4 -10
8 1 15 18 13 3 35 -20 29 -11 -3 -16 -1 -13 5 3 5 16 8 27 6 19 -3 22 -10 22
-48z m93 27 c3 -17 -36 -75 -51 -76 -5 -1 3 13 17 30 31 37 33 59 6 59 -11 0
-20 -5 -20 -12 0 -6 -3 -9 -6 -5 -3 3 -3 11 1 17 10 17 49 8 53 -13z m-9868
-22 c0 -19 -2 -35 -4 -35 -2 0 -6 16 -8 35 -2 19 0 35 4 35 4 0 8 -16 8 -35z
m53 18 c3 9 11 17 17 17 6 0 6 -7 -2 -19 -9 -15 -9 -23 2 -38 13 -16 13 -16
-8 1 -19 17 -22 17 -22 3 0 -10 -4 -17 -8 -17 -4 0 -6 17 -4 38 4 28 7 32 12
18 6 -17 7 -18 13 -3z m4737 -44 c0 -5 -4 -9 -8 -9 -5 0 -9 7 -9 15 0 8 4 12
9 9 4 -3 8 -9 8 -15z m2407 -24 c57 -57 45 -69 -70 -73 -108 -3 -111 0 -77 56
37 61 96 68 147 17z m2670 -1 c-3 -3 -12 -4 -19 -1 -8 3 -5 6 6 6 11 1 17 -2
13 -5z m-10007 -345 c12 -8 10 -9 -7 -4 -13 3 -23 2 -23 -3 0 -5 10 -16 23
-25 20 -14 20 -17 7 -31 -10 -11 -20 -12 -30 -6 -12 8 -11 10 8 10 30 0 28 14
-4 29 -21 9 -24 14 -14 26 15 18 20 18 40 4z m58 4 c-10 -2 -18 -12 -18 -20 0
-9 -3 -14 -6 -10 -12 11 5 37 23 36 17 -1 17 -2 1 -6z m82 -7 c16 -20 9 -60
-12 -64 -24 -5 -42 32 -28 58 13 24 23 25 40 6z m75 -26 c0 -28 -4 -35 -20
-35 -13 0 -21 8 -23 23 -5 34 5 54 25 50 13 -2 18 -13 18 -38z m-141 -6 c3 -9
4 -20 0 -25 -7 -12 -44 -12 -44 0 0 5 9 7 20 4 22 -6 26 7 8 25 -8 8 -8 12 -1
12 6 0 14 -7 17 -16z m9076 -101 c0 -22 -8 -14 -19 20 -10 29 -9 30 4 13 8
-11 15 -26 15 -33z m33 -1 c-15 -39 -33 -56 -33 -32 0 6 5 10 10 10 6 0 10 4
10 9 0 16 20 64 25 59 3 -2 -3 -23 -12 -46z m320 41 c-13 -2 -23 -11 -23 -19
0 -8 10 -15 23 -15 l22 -2 -22 -4 c-13 -2 -24 -13 -26 -26 -2 -12 -5 -1 -6 26
-1 45 0 47 27 46 23 -2 24 -2 5 -6z m368 -65 l-23 -23 13 23 c12 18 12 26 0
45 l-13 22 23 -22 23 -23 -23 -22z m-644 0 c-2 -13 -4 -5 -4 17 -1 22 1 32 4
23 2 -10 2 -28 0 -40z m72 39 c13 -16 5 -27 -21 -27 -26 0 -22 -18 5 -23 19
-5 19 -5 -3 -4 -15 1 -26 9 -28 20 -8 41 22 63 47 34z m41 -12 c0 -7 6 -15 13
-18 9 -3 9 -8 1 -17 -9 -9 -14 -4 -23 21 -14 39 -14 42 -1 34 6 -3 10 -12 10
-20z m40 4 c0 -5 -4 -9 -10 -9 -5 0 -10 7 -10 16 0 8 5 12 10 9 6 -3 10 -10
10 -16z m27 -14 c-10 -35 -27 -48 -27 -20 0 8 4 15 9 15 5 0 11 9 14 20 3 11
7 20 10 20 3 0 0 -16 -6 -35z m187 19 c10 -25 7 -54 -5 -54 -6 0 -9 7 -5 15 3
9 0 15 -9 15 -18 0 -28 -17 -15 -23 6 -3 5 -4 -2 -3 -21 4 -21 27 1 33 12 3
21 10 21 15 0 6 -7 7 -16 4 -8 -3 -12 -2 -9 4 9 15 32 12 39 -6z m33 -36 c-2
-13 -4 -5 -4 17 -1 22 1 32 4 23 2 -10 2 -28 0 -40z m39 11 c2 -31 1 -31 -3
-4 -3 16 -10 34 -16 38 -8 6 -7 7 3 4 9 -2 16 -17 16 -38z m69 31 c3 -6 -1 -7
-9 -4 -9 3 -16 1 -16 -4 0 -6 9 -14 21 -17 27 -9 19 -29 -12 -32 -14 -1 -17 0
-6 3 23 7 22 21 -4 29 -16 5 -18 10 -8 21 13 16 25 18 34 4z m-4895 -64 c0 -6
-5 -3 -11 7 -6 9 -15 14 -21 11 -7 -4 -8 -2 -4 5 9 14 36 -3 36 -23z m-4613
-13 c-3 -10 -5 -4 -5 12 0 17 2 24 5 18 2 -7 2 -21 0 -30z m1201 12 c-3 -3 -9
2 -12 12 -6 14 -5 15 5 6 7 -7 10 -15 7 -18z m79 3 c-3 -8 -6 -5 -6 6 -1 11 2
17 5 13 3 -3 4 -12 1 -19z m980 -25 c-3 -10 -5 -2 -5 17 0 19 2 27 5 18 2 -10
2 -26 0 -35z m103 17 c0 -16 -2 -30 -4 -30 -2 0 -6 14 -8 30 -3 17 -1 30 4 30
4 0 8 -13 8 -30z m60 20 c0 -5 -2 -10 -4 -10 -3 0 -8 5 -11 10 -3 6 -1 10 4
10 6 0 11 -4 11 -10z m1030 -20 c0 -16 -2 -30 -4 -30 -2 0 -6 14 -8 30 -3 17
-1 30 4 30 4 0 8 -13 8 -30z m34 15 c-4 -8 -8 -15 -10 -15 -2 0 -4 7 -4 15 0
8 4 15 10 15 5 0 7 -7 4 -15z m849 -26 c-8 -29 -13 -23 -13 14 0 22 3 28 9 18
5 -7 6 -22 4 -32z m104 19 c-3 -8 -6 -5 -6 6 -1 11 2 17 5 13 3 -3 4 -12 1
-19z m103 -13 c-7 -14 -18 -25 -23 -25 -6 0 -3 8 6 18 10 10 17 25 17 32 0 7
3 10 7 7 3 -4 0 -18 -7 -32z m884 8 c-7 -39 -13 -41 -12 -4 1 17 5 31 9 31 4
0 5 -12 3 -27z m103 -20 c-3 -10 -5 -2 -5 17 0 19 2 27 5 18 2 -10 2 -26 0
-35z m103 12 c-7 -14 -18 -25 -23 -25 -6 0 -3 8 6 18 10 10 17 25 17 32 0 7 3
10 7 7 3 -4 0 -18 -7 -32z m37 13 c-3 -8 -6 -5 -6 6 -1 11 2 17 5 13 3 -3 4
-12 1 -19z m-5619 -13 c-3 -3 -9 2 -12 12 -6 14 -5 15 5 6 7 -7 10 -15 7 -18z
m60 -11 c-3 -14 -5 -12 -10 9 -3 19 -2 25 4 19 6 -6 8 -18 6 -28z m1058 18 c1
-7 0 -8 -3 -2 -8 16 -23 12 -23 -7 0 -9 -3 -14 -6 -10 -4 3 -4 13 0 22 7 18
28 16 32 -3z m1047 -2 c-3 -11 -9 -20 -15 -20 -5 0 -4 9 2 20 6 11 12 20 14
20 2 0 2 -9 -1 -20z m1113 2 c1 -7 0 -8 -3 -2 -8 16 -23 12 -23 -7 0 -9 -3
-14 -6 -10 -4 3 -4 13 0 22 7 18 28 16 32 -3z m1080 0 c1 -7 0 -8 -3 -2 -9 19
-25 10 -20 -11 4 -16 3 -19 -5 -11 -13 13 -2 45 14 40 6 -2 13 -10 14 -16z
m64 -7 c0 -8 -3 -16 -7 -18 -5 -3 -8 5 -8 18 0 13 3 21 8 18 4 -2 7 -10 7 -18z
m-3166 -15 c-6 -6 -10 -3 -10 10 0 13 4 16 10 10 7 -7 7 -13 0 -20z m853 -2
c-3 -7 -5 -2 -5 12 0 14 2 19 5 13 2 -7 2 -19 0 -25z m1227 2 c-6 -6 -10 -3
-10 10 0 13 4 16 10 10 7 -7 7 -13 0 -20z m2312 1 c-4 -6 -15 -10 -24 -10 -15
1 -14 2 1 6 12 3 16 10 12 21 -5 13 -3 14 6 5 6 -6 8 -16 5 -22z m-4475 -4
c-10 -9 -11 -8 -5 6 3 10 9 15 12 12 3 -3 0 -11 -7 -18z m4256 8 c0 -8 -4 -12
-9 -9 -4 3 -8 9 -8 15 0 5 4 9 8 9 5 0 9 -7 9 -15z m-5282 -5 c-3 -5 -14 -10
-23 -9 -14 0 -13 2 3 9 27 11 27 11 20 0z m2215 -4 c-7 -7 -13 -7 -20 0 -6 6
-3 10 10 10 13 0 16 -4 10 -10z m2194 2 c-3 -4 -12 -8 -20 -8 -8 0 -14 4 -14
8 0 4 9 8 19 8 11 0 17 -4 15 -8z m956 2 c0 -5 -5 -10 -11 -10 -5 0 -7 5 -4
10 3 6 8 10 11 10 2 0 4 -4 4 -10z m-6003 -669 c1 -35 -3 -44 -22 -53 -40 -18
-55 -4 -55 51 0 53 13 65 55 51 15 -6 20 -17 22 -49z m5369 1 c2 -45 -13 -62
-55 -62 -19 0 -21 6 -21 54 0 58 8 67 49 56 21 -5 25 -13 27 -48z m330 8 c17
0 24 5 24 20 0 11 5 20 10 20 6 0 10 -25 10 -55 0 -30 -4 -55 -10 -55 -5 0
-10 11 -10 25 0 20 -5 25 -25 25 -20 0 -25 -5 -25 -25 0 -14 -4 -25 -10 -25
-5 0 -10 24 -10 53 0 57 13 87 18 43 3 -20 9 -26 28 -26z m-5471 -25 c0 -25
-2 -45 -6 -45 -23 0 -45 80 -26 99 18 18 31 -4 32 -54z m134 51 c20 -24 9 -69
-20 -85 -42 -23 -59 -9 -59 49 l0 50 34 0 c18 0 39 -6 45 -14z m330 11 c-2 -1
-13 -9 -24 -17 -19 -14 -19 -14 -6 3 7 9 18 17 24 17 6 0 8 -1 6 -3z m4906
-62 c0 -25 -2 -45 -6 -45 -23 0 -45 80 -26 99 18 18 31 -4 32 -54z m586 48
c13 -17 13 -17 -6 -3 -11 8 -22 16 -24 17 -2 2 0 3 6 3 6 0 17 -8 24 -17z
m-6103 -15 c20 -20 14 -38 -13 -38 -14 0 -25 -5 -25 -10 0 -6 11 -8 28 -4 24
7 26 6 13 -9 -7 -10 -19 -17 -27 -17 -17 0 -44 28 -44 45 0 17 27 45 44 45 6
0 17 -5 24 -12z m90 -7 c3 -10 -2 -11 -18 -6 -15 5 -20 4 -16 -4 4 -6 13 -11
21 -11 26 0 26 -30 -1 -42 -21 -10 -28 -9 -42 6 -16 18 -16 18 11 12 19 -5 26
-3 22 4 -3 5 -12 10 -20 10 -18 0 -26 25 -12 39 15 15 49 10 55 -8z m281 5 c7
-8 11 -27 9 -42 -2 -24 -8 -28 -33 -29 -24 0 -31 5 -33 23 -3 17 2 22 17 22
12 0 21 5 21 11 0 6 -9 8 -20 4 -21 -7 -28 10 -7 18 22 9 34 7 46 -7z m49 -13
l10 -28 7 28 c4 15 14 27 22 27 8 0 12 -6 9 -12 -2 -7 -10 -30 -17 -51 -13
-39 -43 -65 -54 -47 -3 5 -1 10 6 10 11 0 9 20 -7 78 -9 32 12 28 24 -5z
m4950 15 c20 -20 14 -38 -13 -38 -14 0 -25 -5 -25 -10 0 -6 12 -8 28 -5 26 6
26 6 8 -9 -11 -9 -23 -16 -27 -16 -13 0 -39 31 -39 45 0 17 27 45 44 45 6 0
17 -5 24 -12z m76 6 c24 -9 19 -26 -5 -19 -15 5 -19 4 -15 -4 4 -6 14 -11 22
-11 22 0 17 -38 -7 -45 -14 -5 -27 -1 -38 10 -15 16 -14 17 12 11 19 -5 26 -3
22 4 -3 5 -12 10 -20 10 -21 0 -28 19 -15 35 14 17 21 18 44 9z m300 -10 c9
-8 16 -22 16 -29 0 -17 -27 -45 -44 -45 -19 0 -36 22 -36 45 0 41 36 58 64 29z
m57 -25 c5 -33 14 -27 21 15 2 11 9 21 16 24 10 3 12 -7 10 -39 -3 -37 -6 -43
-28 -44 -35 -3 -50 12 -50 52 0 45 23 39 31 -8z m109 31 c0 -3 -4 -10 -9 -15
-5 -6 -11 -20 -13 -33 -1 -12 -7 -23 -13 -23 -11 0 -19 45 -12 65 5 12 47 17
47 6z m-5804 -431 c4 -8 0 -9 -15 -4 -27 8 -27 -2 2 -25 20 -17 20 -20 7 -34
-10 -11 -20 -12 -30 -6 -12 8 -11 10 8 10 27 0 29 16 2 25 -30 9 -25 45 6 45
7 0 16 -5 20 -11z m44 1 c0 -5 -5 -10 -11 -10 -5 0 -7 5 -4 10 3 6 8 10 11 10
2 0 4 -4 4 -10z m75 -31 c0 -27 -4 -34 -20 -34 -24 0 -35 53 -13 66 22 14 33
4 33 -32z m70 21 c-17 -19 -17 -21 1 -42 19 -23 19 -23 -2 -5 -11 9 -23 17
-27 17 -3 0 -8 -8 -10 -17 -3 -10 -5 0 -5 22 0 26 2 34 7 22 6 -17 8 -17 25 2
11 12 21 21 24 21 3 0 -3 -9 -13 -20z m5179 11 c4 -5 -3 -7 -14 -4 -26 7 -25
-4 2 -27 19 -15 20 -20 9 -33 -7 -9 -19 -13 -27 -10 -22 8 -17 22 6 16 11 -3
20 -1 20 5 0 6 -9 14 -20 17 -30 9 -25 45 6 45 7 0 15 -4 18 -9z m53 -19 c-23
-25 -21 -35 4 -27 14 5 20 3 17 -5 -2 -6 -7 -11 -11 -11 -4 1 -14 1 -22 1 -8
0 -15 5 -15 10 0 15 32 62 38 55 3 -3 -2 -13 -11 -23z m88 8 c-17 -19 -17 -21
1 -42 19 -23 19 -23 -2 -5 -11 9 -23 17 -27 17 -3 0 -8 -8 -10 -17 -3 -10 -5
0 -5 22 0 26 2 34 7 22 6 -17 8 -17 25 2 11 12 21 21 24 21 3 0 -3 -9 -13 -20z
m-2795 -935 l0 -885 -172 2 -173 2 167 3 167 3 -2 873 -2 872 -206 0 -205 0
-3 -875 c-1 -481 -4 -876 -6 -879 -3 -2 -5 395 -5 883 l0 886 220 0 220 0 0
-885z m-1873 778 c-3 -10 -5 -4 -5 12 0 17 2 24 5 18 2 -7 2 -21 0 -30z m2493
-833 c0 -456 -3 -830 -7 -830 -5 0 -7 373 -5 830 1 456 4 830 7 830 3 0 5
-373 5 -830z m2450 -50 l0 -780 -47 2 -48 1 43 4 42 4 0 770 0 769 -50 0 -50
0 2 -775 c2 -426 0 -775 -4 -775 -5 0 -8 351 -8 780 l0 780 60 0 60 0 0 -780z
m4203 733 c-18 -2 -48 -2 -65 0 -18 2 -4 4 32 4 36 0 50 -2 33 -4z m-9146 -50
c-3 -10 -5 -4 -5 12 0 17 2 24 5 18 2 -7 2 -21 0 -30z m9060 -55 c-2 -18 -4
-4 -4 32 0 36 2 50 4 33 2 -18 2 -48 0 -65z m113 -658 l0 -750 -62 2 -63 2 58
3 57 4 0 744 c0 410 2 745 5 745 3 0 5 -337 5 -750z m-9965 720 c3 -6 -4 -10
-17 -10 l-22 0 22 -16 c35 -24 23 -60 -15 -46 -21 7 -15 21 7 15 11 -3 20 -1
20 5 0 6 -9 14 -20 17 -22 7 -27 31 -7 38 19 8 25 8 32 -3z m73 -11 c3 -11 2
-11 -7 1 -8 11 -13 12 -22 3 -8 -8 -6 -14 10 -22 21 -12 29 -41 11 -41 -5 0
-7 7 -4 15 4 10 0 15 -11 15 -11 0 -15 -5 -11 -16 3 -8 2 -12 -3 -9 -11 6 -9
44 3 63 10 16 28 11 34 -9z m67 1 c-17 -19 -17 -21 0 -40 10 -11 13 -20 8 -20
-6 0 -14 8 -18 18 -6 16 -7 16 -21 -2 -13 -18 -14 -17 -13 20 0 26 3 33 8 21
6 -17 8 -17 25 2 11 12 21 21 24 21 3 0 -3 -9 -13 -20z m5179 -79 c4 -5 -3 -7
-14 -4 -26 7 -25 -4 2 -27 19 -15 20 -20 9 -33 -7 -9 -19 -13 -27 -10 -22 8
-17 22 6 16 26 -7 25 4 -2 26 -12 10 -18 23 -14 29 9 14 33 16 40 3z m72 -29
c2 -35 -19 -53 -38 -34 -8 8 -5 9 11 5 12 -3 21 -1 21 6 0 6 -5 11 -12 11 -9
0 -9 3 0 12 18 18 14 31 -8 25 -11 -3 -17 -1 -14 4 13 22 38 3 40 -29z m62 20
c26 22 26 22 8 1 -19 -23 -19 -23 0 -45 19 -23 19 -23 -2 -5 -11 9 -23 17 -27
17 -3 0 -8 -8 -10 -17 -3 -10 -5 2 -4 27 0 25 2 34 4 22 l5 -24 26 24z m4399
-1039 c-1 -175 -2 -32 -2 317 0 349 1 492 2 318 2 -175 2 -461 0 -635z m-9867
767 l-25 -6 23 -12 c12 -7 22 -19 22 -26 0 -18 -23 -27 -41 -15 -11 7 -9 9 9
9 27 0 29 16 2 25 -22 7 -27 31 -7 38 6 2 19 2 27 -2 11 -3 8 -7 -10 -11z m90
3 c0 -2 -8 -3 -17 -1 -12 2 -18 -5 -19 -24 -3 -36 13 -46 25 -16 9 22 10 22
10 2 1 -25 -21 -38 -38 -21 -25 25 -5 82 25 70 8 -3 14 -7 14 -10z m53 -6 c20
16 20 16 8 0 -12 -15 -11 -20 4 -37 10 -11 13 -20 8 -20 -6 0 -14 8 -18 18 -6
16 -7 16 -21 -2 -13 -18 -14 -17 -13 20 1 21 3 31 6 21 5 -18 5 -18 26 0z
m5191 -166 c4 -5 -3 -7 -14 -4 -29 8 -25 -12 6 -26 14 -6 24 -17 21 -24 -5
-16 -36 -22 -50 -8 -7 7 -4 8 10 5 12 -3 24 -1 27 5 4 6 1 11 -7 11 -19 0 -40
26 -32 40 8 12 32 13 39 1z m73 -6 c3 -9 -2 -24 -12 -34 -16 -18 -15 -20 2
-24 11 -3 7 -5 -11 -6 l-29 -1 21 23 c25 27 29 52 7 43 -8 -3 -15 -1 -15 4 0
16 30 11 37 -5z m40 -15 c4 0 16 8 27 18 21 17 21 17 2 -5 -19 -23 -19 -23 0
-45 19 -23 19 -23 -2 -5 -11 9 -23 17 -27 17 -3 0 -8 -8 -10 -17 -3 -10 -5 2
-5 27 0 25 2 37 5 28 2 -10 7 -18 10 -18z m-5433 -159 c4 -5 -3 -7 -14 -4 -26
7 -25 -4 2 -26 12 -10 18 -23 14 -29 -9 -14 -33 -16 -40 -3 -4 5 3 7 14 4 26
-7 26 14 0 22 -30 9 -25 45 6 45 7 0 15 -4 18 -9z m66 -1 c0 -5 -5 -10 -11
-10 -5 0 -7 5 -4 10 3 6 8 10 11 10 2 0 4 -4 4 -10z m68 -8 c26 22 26 22 8 1
-19 -23 -19 -23 0 -45 19 -23 19 -23 -2 -5 -11 9 -23 17 -27 17 -3 0 -8 -8
-10 -17 -3 -10 -5 2 -4 27 0 25 2 34 4 22 l5 -24 26 24z m-95 -27 c-3 -9 -8
-14 -10 -11 -3 3 -2 9 2 15 9 16 15 13 8 -4z m37 -14 c0 -6 -4 -13 -10 -16 -5
-3 -10 1 -10 9 0 9 5 16 10 16 6 0 10 -4 10 -9z m5260 -221 c12 -8 10 -10 -10
-10 l-25 -1 23 -16 c12 -8 22 -21 22 -28 0 -17 -23 -25 -41 -14 -11 7 -9 9 9
9 12 0 22 5 22 10 0 6 -6 10 -14 10 -19 0 -29 17 -22 35 6 17 15 18 36 5z m59
-37 c-2 -35 -2 -35 -6 -8 -3 16 -10 33 -16 37 -8 5 -6 8 6 8 13 0 17 -8 16
-37z m54 24 c20 16 20 16 8 0 -12 -15 -11 -20 4 -37 10 -11 13 -20 8 -20 -6 0
-14 8 -18 18 -6 16 -7 16 -20 -1 -12 -16 -13 -14 -12 20 0 21 2 30 5 20 4 -18
4 -18 25 0z m-5448 -77 c3 -6 -1 -7 -9 -4 -18 7 -21 14 -7 14 6 0 13 -4 16
-10z m72 -5 c3 -9 -2 -24 -12 -34 -16 -18 -15 -20 2 -24 11 -3 7 -5 -11 -6
l-29 -1 21 23 c26 27 29 52 6 43 -8 -3 -12 -2 -9 4 9 15 25 12 32 -5z m68 -5
c-17 -19 -17 -21 1 -42 19 -23 19 -23 -2 -5 -11 9 -23 17 -27 17 -3 0 -8 -8
-10 -17 -3 -10 -5 0 -5 22 0 26 2 34 7 22 6 -17 8 -17 25 2 11 12 21 21 24 21
3 0 -3 -9 -13 -20z m-147 -19 c27 -14 28 -27 3 -40 -14 -8 -22 -7 -30 3 -9 11
-6 12 16 9 l28 -4 -27 21 c-16 12 -28 27 -28 33 0 9 2 9 8 1 4 -6 17 -16 30
-23z m799 -348 c-3 -10 -5 -4 -5 12 0 17 2 24 5 18 2 -7 2 -21 0 -30z m-722
17 c3 -5 0 -7 -8 -4 -26 10 -27 -13 -2 -24 29 -13 31 -24 9 -42 -12 -11 -18
-11 -30 2 -14 14 -13 15 10 11 15 -3 26 -1 26 6 0 6 -6 11 -14 11 -22 0 -38
24 -24 38 15 15 25 15 33 2z m75 -5 c18 -21 4 -65 -20 -65 -24 0 -38 44 -20
65 7 8 16 15 20 15 4 0 13 -7 20 -15z m5245 5 c3 -5 0 -7 -8 -4 -26 10 -27
-13 -2 -24 29 -13 31 -24 9 -42 -12 -11 -18 -11 -30 2 -14 14 -13 15 13 11
l28 -4 -28 21 c-22 18 -25 25 -16 36 13 16 25 18 34 4z m75 -5 c18 -21 4 -65
-20 -65 -24 0 -38 44 -20 65 7 8 16 15 20 15 4 0 13 -7 20 -15z m-5095 -15 c3
-5 1 -10 -4 -10 -6 0 -11 5 -11 10 0 6 2 10 4 10 3 0 8 -4 11 -10z m2788 -7
c-56 -2 -151 -2 -210 0 -59 1 -13 3 102 3 116 0 164 -2 108 -3z m-2659 -163
c-6 -6 -10 -2 -11 12 -2 16 1 18 10 9 7 -7 8 -14 1 -21z m56 21 c0 -6 -4 -13
-10 -16 -5 -3 -10 1 -10 9 0 9 5 16 10 16 6 0 10 -4 10 -9z m1220 -1 c0 -5 -5
-10 -11 -10 -5 0 -7 5 -4 10 3 6 8 10 11 10 2 0 4 -4 4 -10z m620 -20 c0 -16
-2 -30 -4 -30 -2 0 -6 14 -8 30 -3 17 -1 30 4 30 4 0 8 -13 8 -30z m37 -17
c-3 -10 -5 -2 -5 17 0 19 2 27 5 18 2 -10 2 -26 0 -35z m1207 31 c3 -8 2 -12
-4 -9 -6 3 -10 10 -10 16 0 14 7 11 14 -7z m3431 6 c-3 -5 2 -10 11 -10 10 0
15 -3 11 -6 -10 -10 -39 5 -32 16 3 5 8 10 11 10 3 0 2 -4 -1 -10z m725 -20
c0 -16 -2 -30 -4 -30 -2 0 -6 14 -8 30 -3 17 -1 30 4 30 4 0 8 -13 8 -30z
m753 6 c-10 -13 -19 -23 -21 -21 -5 5 22 45 31 45 4 0 0 -11 -10 -24z m747 14
c6 9 10 10 10 3 0 -7 -6 -16 -14 -20 -7 -4 -15 -15 -18 -23 -3 -8 -6 0 -5 18
0 22 3 29 9 20 6 -10 10 -10 18 2z m-8689 -17 c13 -16 12 -17 -3 -4 -10 7 -18
15 -18 17 0 8 8 3 21 -13z m57 -19 c-3 -14 -5 -12 -10 9 -3 19 -2 25 4 19 6
-6 8 -18 6 -28z m608 18 c1 -7 0 -8 -3 -2 -8 16 -23 12 -23 -7 0 -9 -3 -14 -6
-10 -4 3 -4 13 0 22 7 18 28 16 32 -3z m582 -7 c-3 -3 -9 2 -12 12 -6 14 -5
15 5 6 7 -7 10 -15 7 -18z m1902 15 c0 -5 -2 -10 -4 -10 -3 0 -8 5 -11 10 -3
6 -1 10 4 10 6 0 11 -4 11 -10z m638 -26 c-3 -14 -5 -12 -10 9 -3 19 -2 25 4
19 6 -6 8 -18 6 -28z m1360 0 c-3 -14 -5 -12 -10 9 -3 19 -2 25 4 19 6 -6 8
-18 6 -28z m30 0 c-3 -14 -5 -12 -10 9 -3 19 -2 25 4 19 6 -6 8 -18 6 -28z
m630 0 c-3 -14 -5 -12 -10 9 -3 19 -2 25 4 19 6 -6 8 -18 6 -28z m740 0 c-3
-14 -5 -12 -10 9 -3 19 -2 25 4 19 6 -6 8 -18 6 -28z m810 0 c-3 -14 -5 -12
-10 9 -3 19 -2 25 4 19 6 -6 8 -18 6 -28z m30 0 c-3 -14 -5 -12 -10 9 -3 19
-2 25 4 19 6 -6 8 -18 6 -28z m690 11 c-3 -3 -9 2 -12 12 -6 14 -5 15 5 6 7
-7 10 -15 7 -18z m760 -11 c-3 -14 -5 -12 -10 9 -3 19 -2 25 4 19 6 -6 8 -18
6 -28z m-8255 6 c3 -11 1 -18 -4 -14 -5 3 -9 12 -9 20 0 20 7 17 13 -6z m727
0 c0 -11 -4 -20 -9 -20 -5 0 -7 9 -4 20 3 11 7 20 9 20 2 0 4 -9 4 -20z m610
0 c0 -13 -7 -20 -20 -20 -11 0 -20 4 -20 10 0 5 7 7 15 4 9 -4 15 0 15 10 0 9
2 16 5 16 3 0 5 -9 5 -20z m1197 -12 c-3 -7 -5 -2 -5 12 0 14 2 19 5 13 2 -7
2 -19 0 -25z m586 12 c3 -11 1 -18 -4 -14 -5 3 -9 12 -9 20 0 20 7 17 13 -6z
m1394 -12 c-3 -7 -5 -2 -5 12 0 14 2 19 5 13 2 -7 2 -19 0 -25z m630 10 c-3
-8 -6 -5 -6 6 -1 11 2 17 5 13 3 -3 4 -12 1 -19z m110 -10 c-3 -7 -5 -2 -5 12
0 14 2 19 5 13 2 -7 2 -19 0 -25z m30 0 c-3 -7 -5 -2 -5 12 0 14 2 19 5 13 2
-7 2 -19 0 -25z m760 0 c-3 -7 -5 -2 -5 12 0 14 2 19 5 13 2 -7 2 -19 0 -25z
m675 0 c-8 -8 -9 -4 -5 13 4 13 8 18 11 10 2 -7 -1 -18 -6 -23z m685 0 c-3 -7
-5 -2 -5 12 0 14 2 19 5 13 2 -7 2 -19 0 -25z m765 0 c-8 -8 -9 -4 -5 13 4 13
8 18 11 10 2 -7 -1 -18 -6 -23z m55 0 c-3 -7 -5 -2 -5 12 0 14 2 19 5 13 2 -7
2 -19 0 -25z m-8833 6 c3 -8 2 -12 -4 -9 -6 3 -10 10 -10 16 0 14 7 11 14 -7z
m3701 7 c3 -5 2 -12 -3 -15 -5 -3 -9 1 -9 9 0 17 3 19 12 6z m3559 -6 c-4 -8
-11 -15 -16 -15 -6 0 -5 6 2 15 7 8 14 15 16 15 2 0 1 -7 -2 -15z m726 -1 c0
-8 -5 -12 -10 -9 -6 4 -8 11 -5 16 9 14 15 11 15 -7z m-2200 -4 c0 -5 -2 -10
-4 -10 -3 0 -8 5 -11 10 -3 6 -1 10 4 10 6 0 11 -4 11 -10z m-5616 -591 c-3
-5 -10 -7 -15 -3 -5 3 -7 10 -3 15 3 5 10 7 15 3 5 -3 7 -10 3 -15z m-992 -6
c39 -35 12 -93 -43 -93 -29 0 -29 1 -29 55 0 53 1 55 27 55 14 0 35 -7 45 -17z
m238 6 c0 -26 -32 -119 -41 -119 -6 0 -8 8 -5 18 3 9 10 38 17 65 6 26 15 47
20 47 5 0 9 -5 9 -11z m42 -11 c2 -15 10 -23 23 -23 13 0 21 8 23 23 7 44 22
21 22 -34 0 -40 -4 -54 -12 -52 -7 3 -13 12 -13 21 0 9 -3 17 -7 17 -5 0 -15
0 -23 0 -8 0 -15 -9 -15 -20 0 -11 -4 -20 -10 -20 -5 0 -10 25 -10 55 0 54 15
77 22 33z m438 12 c0 -5 -11 -10 -25 -10 -24 0 -37 -19 -15 -21 6 -1 15 -2 20
-3 20 -2 14 -21 -7 -24 -31 -5 -29 -22 2 -22 14 0 25 -4 25 -10 0 -5 -15 -10
-34 -10 -34 0 -34 0 -38 51 -1 28 -1 53 1 55 9 9 71 3 71 -6z m620 -9 c0 -11
4 -22 9 -25 16 -10 41 5 41 25 0 10 5 19 10 19 6 0 10 -25 10 -55 0 -30 -4
-55 -10 -55 -5 0 -10 9 -10 20 0 11 -7 20 -15 20 -24 0 -30 -4 -30 -19 0 -8
-6 -16 -13 -19 -8 -2 -12 12 -12 52 0 31 5 56 10 56 6 0 10 -9 10 -19z m299
-5 c7 -9 8 -17 2 -20 -10 -7 -9 -25 3 -44 10 -17 1 -26 -17 -19 -8 3 -16 21
-19 40 -6 55 7 73 31 43z m-1539 -20 c6 -8 10 -25 8 -38 -2 -19 -9 -23 -38
-23 -45 0 -54 28 -13 43 26 10 26 10 5 11 -13 1 -20 5 -17 11 9 15 41 12 55
-4z m45 -13 l7 -28 10 28 c12 34 33 36 24 2 -12 -48 -26 -76 -41 -81 -21 -8
-33 5 -15 16 12 7 11 15 -2 49 -13 32 -14 41 -3 41 7 0 16 -12 20 -27z m290
-13 c0 -31 -3 -35 -27 -38 -19 -2 -30 3 -38 17 -16 32 4 63 38 59 24 -3 27 -7
27 -38z m45 9 c0 -38 24 -35 28 4 5 42 22 32 22 -12 0 -38 -1 -39 -32 -38 -30
2 -33 5 -36 40 -2 21 1 37 7 37 6 0 11 -14 11 -31z m120 22 c0 -5 -7 -11 -15
-15 -8 -3 -15 -17 -15 -31 0 -14 -4 -25 -10 -25 -5 0 -10 18 -10 40 0 36 3 40
25 40 14 0 25 -4 25 -9z m206 -16 c10 -40 -2 -57 -38 -53 -39 4 -45 28 -10 43
28 12 29 25 0 17 -14 -3 -19 -2 -14 6 4 7 18 12 31 12 18 0 26 -7 31 -25z m64
15 c0 -5 -4 -10 -10 -10 -5 0 -10 -13 -10 -30 0 -20 -5 -30 -15 -30 -11 0 -15
11 -15 40 0 36 3 40 25 40 14 0 25 -4 25 -10z m88 -34 c2 -28 0 -37 -10 -34
-7 3 -14 17 -16 31 -4 37 -22 34 -22 -3 0 -20 -5 -30 -15 -30 -11 0 -15 11
-15 41 l0 40 38 -3 c35 -3 37 -5 40 -42z m42 4 c0 -22 -4 -40 -10 -40 -5 0
-10 18 -10 40 0 22 5 40 10 40 6 0 10 -18 10 -40z m88 -2 c2 -22 -1 -38 -7
-38 -6 0 -11 14 -11 30 0 20 -5 30 -15 30 -10 0 -15 -10 -15 -30 0 -16 -4 -30
-10 -30 -5 0 -10 18 -10 41 0 39 1 40 33 37 29 -3 32 -6 35 -40z m102 -1 c0
-24 -5 -48 -12 -55 -15 -15 -54 -16 -63 -2 -4 6 5 10 19 10 14 0 26 5 26 11 0
5 -4 8 -9 5 -19 -12 -41 7 -41 33 0 36 6 41 47 41 32 0 33 -1 33 -43z m76 31
c5 -8 0 -9 -14 -6 -12 4 -22 3 -22 -2 0 -4 9 -10 21 -13 33 -9 21 -42 -15 -42
-16 0 -31 6 -34 13 -3 9 4 11 25 7 24 -5 25 -4 7 4 -26 12 -37 27 -29 41 8 14
52 13 61 -2z m233 -5 c8 -15 4 -20 -22 -31 -30 -11 -31 -12 -4 -8 15 2 27 0
27 -5 0 -14 -21 -21 -46 -15 -18 5 -24 13 -24 35 0 15 3 31 7 34 13 14 52 7
62 -10z m89 -26 c3 -38 3 -38 -30 -35 -39 4 -53 36 -19 45 12 3 21 9 21 13 0
5 -10 6 -22 2 -15 -4 -19 -2 -14 7 5 7 20 11 34 9 23 -3 27 -8 30 -41z m192 2
c0 -21 -4 -39 -10 -39 -5 0 -10 14 -10 30 0 17 -4 30 -10 30 -5 0 -10 -13 -10
-30 0 -20 -5 -30 -15 -30 -10 0 -15 10 -15 30 0 17 -4 30 -10 30 -5 0 -10 -14
-10 -31 0 -44 -24 -32 -28 14 l-3 37 60 -1 61 -1 0 -39z m88 -1 c3 -37 3 -38
-32 -38 -30 0 -36 4 -36 21 0 12 8 23 20 26 11 3 20 9 20 13 0 5 -10 6 -22 2
-15 -4 -19 -2 -14 7 5 7 20 11 34 9 23 -3 27 -8 30 -40z m92 27 c19 -23 -3
-69 -30 -62 -15 4 -20 0 -20 -14 0 -10 -4 -19 -10 -19 -5 0 -10 25 -10 55 0
54 1 55 29 55 16 0 34 -7 41 -15z m-1422 -437 c-1 -37 -2 -39 -5 -10 -2 17
-10 32 -16 32 -7 0 -6 4 3 10 8 5 16 10 18 10 1 0 1 -19 0 -42z m70 29 c7 -8
6 -18 -4 -31 -11 -16 -11 -21 -1 -28 8 -5 4 -8 -10 -8 -28 0 -29 11 -3 35 21
19 17 40 -7 31 -8 -3 -11 -1 -8 4 8 14 20 13 33 -3z m797 3 c7 -11 -25 -70
-38 -70 -5 0 1 12 12 26 22 28 19 49 -6 40 -8 -3 -11 -1 -8 4 8 13 32 13 40 0z
m819 -62 c-3 -4 -16 -2 -29 4 l-24 11 22 31 21 30 7 -34 c4 -19 5 -38 3 -42z
m821 62 c3 -6 -1 -7 -9 -4 -18 7 -21 14 -7 14 6 0 13 -4 16 -10z m811 2 c6 -4
10 -20 10 -37 -1 -23 -6 -31 -23 -33 -20 -3 -22 0 -18 35 1 21 3 39 4 41 2 4
16 2 27 -6z m782 -40 l-1 -37 -4 33 c-2 17 -9 32 -14 32 -6 0 -7 5 -4 10 12
20 25 -1 23 -38z m72 33 c18 -21 4 -65 -20 -65 -24 0 -38 44 -20 65 7 8 16 15
20 15 4 0 13 -7 20 -15z m748 -27 c-1 -37 -2 -39 -5 -10 -2 17 -9 32 -14 32
-6 0 -7 5 -4 10 14 23 25 7 23 -32z m69 27 c3 -9 -2 -24 -12 -34 -16 -18 -15
-20 2 -24 11 -3 7 -5 -11 -6 l-29 -1 21 23 c29 31 29 50 0 42 -18 -5 -20 -4
-8 4 21 15 30 14 37 -4z m791 2 c7 -8 6 -18 -4 -31 -11 -16 -11 -21 -1 -28 8
-5 4 -8 -10 -8 -28 0 -29 11 -3 35 21 19 17 40 -7 31 -8 -3 -11 -1 -8 4 8 14
20 13 33 -3z m824 -23 c5 -42 0 -46 -30 -30 l-23 12 21 27 c12 15 23 27 25 27
1 0 5 -16 7 -36z m814 24 c4 -7 3 -8 -5 -4 -6 4 -20 2 -29 -6 -15 -12 -16 -11
-3 5 16 20 27 22 37 5z m826 -23 c9 -34 -1 -49 -28 -43 -18 4 -22 31 -9 66 8
22 28 8 37 -23z m768 25 c0 -5 -5 -10 -11 -10 -5 0 -7 5 -4 10 3 6 8 10 11 10
2 0 4 -4 4 -10z m75 -31 c0 -27 -4 -34 -20 -34 -24 0 -35 53 -13 66 22 14 33
4 33 -32z m-6599 -29 c16 0 19 26 4 33 -6 3 -5 4 2 3 22 -4 15 -41 -7 -41 -15
0 -21 8 -22 33 -3 32 -3 32 3 2 3 -17 12 -30 20 -30z m-2348 17 c3 -21 -1 -27
-17 -27 -24 0 -36 16 -20 26 8 4 9 3 5 -4 -4 -7 -1 -12 8 -12 18 0 22 35 6 43
-6 3 -5 4 2 3 7 -1 14 -15 16 -29z m29 -14 c-3 -10 -5 -2 -5 17 0 19 2 27 5
18 2 -10 2 -26 0 -35z m70 12 c2 -25 1 -26 -5 -7 -4 13 -11 23 -17 23 -5 0
-13 -10 -16 -23 -5 -21 -6 -20 -10 7 -4 28 -2 31 21 30 21 0 25 -5 27 -30z
m690 -1 c1 -25 0 -26 -4 -4 -3 14 -10 29 -17 33 -7 6 -6 7 4 4 8 -2 16 -16 17
-33z m73 14 c0 -6 -6 -5 -15 2 -8 7 -15 14 -15 16 0 2 7 1 15 -2 8 -4 15 -11
15 -16z m28 -19 c-3 -20 -5 -19 -9 9 -3 20 -2 29 4 23 5 -5 7 -19 5 -32z m718
5 l2 -29 -5 28 c-3 20 -9 27 -19 23 -9 -3 -12 -2 -9 5 12 18 30 3 31 -27z m71
0 c2 -25 1 -26 -5 -6 -4 13 -11 23 -17 23 -5 0 -13 -10 -17 -23 -6 -22 -6 -22
-7 4 -2 47 43 49 46 2z m31 -5 c-3 -20 -5 -19 -9 9 -3 20 -2 29 4 23 5 -5 7
-19 5 -32z m718 5 l2 -29 -5 28 c-3 20 -9 27 -19 23 -9 -3 -12 -2 -9 5 12 18
30 3 31 -27z m71 0 c2 -25 1 -26 -5 -6 -4 13 -11 23 -17 23 -5 0 -13 -10 -17
-23 -6 -22 -6 -22 -7 4 -2 47 43 49 46 2z m31 -5 c-3 -20 -5 -19 -9 9 -3 20
-2 29 4 23 5 -5 7 -19 5 -32z m718 5 l2 -29 -5 28 c-3 20 -9 27 -19 23 -9 -3
-12 -2 -9 5 12 18 30 3 31 -27z m71 0 c2 -25 1 -26 -5 -6 -4 13 -11 23 -17 23
-5 0 -13 -10 -17 -23 -6 -22 -6 -22 -7 4 -2 47 43 49 46 2z m31 -5 c-3 -20 -5
-19 -9 9 -3 20 -2 29 4 23 5 -5 7 -19 5 -32z m750 8 c2 -15 -1 -27 -6 -27 -5
0 -7 12 -4 27 4 22 2 25 -12 20 -11 -4 -15 -3 -11 4 11 17 30 4 33 -24z m98 0
c1 -26 1 -26 -3 -2 -5 32 -25 28 -33 -6 -6 -23 -7 -23 -11 6 -4 28 -2 31 21
30 20 0 25 -5 26 -28z m719 3 c0 -13 -6 -24 -13 -26 -7 -1 -8 0 -2 3 5 2 10
13 10 23 0 10 -5 21 -10 23 -6 3 -5 4 2 3 7 -2 13 -13 13 -26z m101 -3 c1 -26
1 -26 -3 -2 -5 31 -28 28 -27 -4 1 -31 -13 -26 -18 7 -3 24 -1 28 22 27 20 0
25 -5 26 -28z m698 -10 c-3 -9 -11 -17 -16 -17 -6 0 -5 6 2 15 10 12 10 18 -1
33 -12 16 -12 16 4 1 11 -9 15 -22 11 -32z m63 7 c2 -25 1 -26 -5 -6 -4 13
-11 23 -17 23 -5 0 -13 -10 -17 -23 -6 -22 -6 -22 -7 4 -2 47 43 49 46 2z m31
-5 c-3 -20 -5 -19 -9 9 -3 20 -2 29 4 23 5 -5 7 -19 5 -32z m729 -3 c-7 -17
-47 -23 -47 -7 0 5 9 7 20 4 22 -6 27 14 10 35 -5 7 -3 6 6 -2 9 -8 14 -22 11
-30z m61 3 c-3 -20 -5 -19 -9 9 -3 20 -2 29 4 23 5 -5 7 -19 5 -32z m32 31 c0
-5 -2 -10 -4 -10 -3 0 -8 5 -11 10 -3 6 -1 10 4 10 6 0 11 -4 11 -10z m724
-33 c-3 -9 -11 -17 -16 -17 -6 0 -5 6 2 15 10 12 10 18 -1 33 -12 16 -12 16 4
1 11 -9 15 -22 11 -32z m64 2 c-3 -20 -5 -19 -9 9 -3 20 -2 29 4 23 5 -5 7
-19 5 -32z m30 0 c-3 -20 -5 -19 -9 9 -3 20 -2 29 4 23 5 -5 7 -19 5 -32z
m726 -2 c-3 -9 -11 -17 -16 -17 -6 0 -5 6 2 15 10 12 10 18 -1 33 -12 16 -12
16 4 1 11 -9 15 -22 11 -32z m64 2 c-3 -20 -5 -19 -9 9 -3 20 -2 29 4 23 5 -5
7 -19 5 -32z m780 16 c-3 -3 -9 2 -12 12 -6 14 -5 15 5 6 7 -7 10 -15 7 -18z
m67 7 c-3 -3 -11 0 -18 7 -9 10 -8 11 6 5 10 -3 15 -9 12 -12z m33 -23 c-3
-20 -5 -19 -9 9 -3 20 -2 29 4 23 5 -5 7 -19 5 -32z m-8301 -6 c-3 -10 -5 -4
-5 12 0 17 2 24 5 18 2 -7 2 -21 0 -30z m3310 0 c-3 -10 -5 -4 -5 12 0 17 2
24 5 18 2 -7 2 -21 0 -30z m750 -15 c-2 -13 -4 -5 -4 17 -1 22 1 32 4 23 2
-10 2 -28 0 -40z m70 15 c-3 -10 -5 -4 -5 12 0 17 2 24 5 18 2 -7 2 -21 0 -30z
m728 7 c-3 -43 -12 -47 -13 -5 -1 19 2 35 7 35 4 0 7 -14 6 -30z m887 5 c-2
-14 -6 -25 -8 -25 -2 0 -4 11 -4 25 0 14 4 25 9 25 4 0 6 -11 3 -25z m724 -14
c-7 -10 -46 -16 -46 -7 0 2 -3 11 -6 20 -3 9 -1 16 6 16 6 0 9 -4 5 -9 -7 -12
12 -24 25 -16 8 5 7 12 -1 23 -12 16 -12 16 5 0 10 -9 15 -21 12 -27z m96 14
c-2 -14 -6 -25 -8 -25 -2 0 -4 11 -4 25 0 14 4 25 9 25 4 0 6 -11 3 -25z m753
-5 c-3 -43 -12 -47 -13 -5 -1 19 2 35 7 35 4 0 7 -14 6 -30z m67 5 c-2 -14 -6
-25 -8 -25 -2 0 -4 11 -4 25 0 14 4 25 9 25 4 0 6 -11 3 -25z m780 3 c-4 -18
-2 -20 16 -16 12 4 22 2 22 -3 0 -5 -9 -9 -19 -9 -11 0 -22 -6 -24 -12 -3 -7
-6 4 -6 25 -1 20 3 37 8 37 5 0 7 -10 3 -22z m65 -15 c-3 -10 -5 -4 -5 12 0
17 2 24 5 18 2 -7 2 -21 0 -30z m-8280 2 c0 -8 -4 -15 -9 -15 -4 0 -8 7 -8 15
0 8 4 15 8 15 5 0 9 -7 9 -15z m820 0 c0 -8 -4 -15 -9 -15 -4 0 -8 7 -8 15 0
8 4 15 8 15 5 0 9 -7 9 -15z m817 0 c-4 -8 -8 -15 -10 -15 -2 0 -4 7 -4 15 0
8 4 15 10 15 5 0 7 -7 4 -15z m821 -13 c-8 -8 -25 10 -19 20 4 6 9 5 15 -3 4
-7 6 -15 4 -17z m842 13 c0 -8 -4 -12 -9 -9 -5 3 -6 10 -3 15 9 13 12 11 12
-6z m4813 -5 c0 -5 -4 -10 -10 -10 -5 0 -10 5 -10 10 0 6 5 10 10 10 6 0 10
-4 10 -10z m698 -282 l-2 -123 -3 117 -4 118 -187 3 -187 2 193 3 192 2 -2
-122z m-371 80 c-3 -8 -6 -5 -6 6 -1 11 2 17 5 13 3 -3 4 -12 1 -19z m-9731
-57 c-3 -5 6 -16 20 -26 23 -15 25 -19 11 -32 -12 -12 -19 -13 -33 -4 -17 11
-17 11 3 6 32 -9 37 10 8 29 -22 14 -27 36 -9 36 3 0 3 -4 0 -9z m78 -61 c10
-13 9 -13 -6 -1 -10 7 -17 23 -17 35 1 20 2 20 6 1 3 -11 10 -27 17 -35z m23
13 c-3 -10 -5 -4 -5 12 0 17 2 24 5 18 2 -7 2 -21 0 -30z m35 12 c-2 -14 -6
-25 -8 -25 -2 0 -4 11 -4 25 0 14 4 25 9 25 4 0 6 -11 3 -25z m36 -11 c-3 -14
-5 -12 -10 9 -3 19 -2 25 4 19 6 -6 8 -18 6 -28z m9752 -107 l185 -2 -192 -3
c-178 -2 -193 -1 -193 16 0 12 3 13 8 5 6 -9 60 -13 192 -16z m-9866 -126 c4
-5 -3 -7 -14 -4 -26 7 -26 -14 0 -22 11 -3 20 -13 20 -21 0 -19 -28 -30 -42
-16 -8 8 -5 9 11 5 27 -7 27 10 -1 29 -12 8 -18 19 -14 26 9 14 32 16 40 3z
m110 -40 c1 -16 -2 -27 -5 -25 -9 5 -17 52 -11 59 9 9 15 -4 16 -34z m-36 -4
c2 -15 -1 -27 -6 -27 -5 0 -8 10 -7 23 1 12 -5 25 -14 29 -13 6 -12 7 4 5 14
-1 21 -11 23 -30z m-34 -13 c3 -8 2 -12 -4 -9 -6 3 -10 10 -10 16 0 14 7 11
14 -7z m8364 -276 l-2 -133 -3 127 -4 128 -182 3 -182 2 188 3 187 2 -2 -132z
m-8376 45 c-15 -3 -22 -10 -18 -19 3 -8 1 -24 -4 -36 -7 -19 -9 -16 -9 20 -1
40 1 42 27 41 24 -2 25 -2 4 -6z m50 -38 c-2 -14 -6 -25 -8 -25 -2 0 -4 11 -4
25 0 14 4 25 9 25 4 0 6 -11 3 -25z m35 -22 c-3 -10 -5 -2 -5 17 0 19 2 27 5
18 2 -10 2 -26 0 -35z m-139 -230 c-13 -3 -18 -16 -20 -41 l-1 -37 -4 35 c-3
19 -10 38 -16 42 -7 4 4 7 23 7 19 -1 27 -3 18 -6z m32 -49 c-8 -27 -8 -26 -9
16 0 32 2 40 9 29 5 -9 6 -28 0 -45z m40 6 c0 -16 -2 -30 -4 -30 -2 0 -6 14
-8 30 -3 17 -1 30 4 30 4 0 8 -13 8 -30z m45 -11 c6 0 13 10 17 23 6 22 6 22
7 -3 1 -16 -5 -29 -15 -33 -23 -9 -34 2 -33 32 1 26 1 26 7 4 4 -13 12 -23 17
-23z m9172 -321 c-2 -35 -3 -7 -3 62 0 69 1 97 3 63 2 -35 2 -91 0 -125z m33
157 c0 -8 -4 -15 -10 -15 -5 0 -7 7 -4 15 4 8 8 15 10 15 2 0 4 -7 4 -15z
m-9393 -97 c-3 -7 -5 -2 -5 12 0 14 2 19 5 13 2 -7 2 -19 0 -25z m34 5 c-12
-20 -14 -14 -5 12 4 9 9 14 11 11 3 -2 0 -13 -6 -23z m46 5 c-3 -8 -6 -5 -6 6
-1 11 2 17 5 13 3 -3 4 -12 1 -19z m133 -13 c0 -19 -4 -35 -8 -35 -7 0 -8 33
-3 63 3 21 11 2 11 -28z m-104 6 c-4 -5 -2 -11 3 -13 5 -1 3 -9 -5 -16 -12
-11 -14 -10 -14 6 0 10 3 22 7 25 9 10 15 8 9 -2z m32 -16 c-3 -3 -9 2 -12 12
-6 14 -5 15 5 6 7 -7 10 -15 7 -18z m42 21 c0 -3 -4 -8 -10 -11 -5 -3 -10 -1
-10 4 0 6 5 11 10 11 6 0 10 -2 10 -4z m-119 -20 c5 3 9 -2 9 -10 0 -9 -4 -16
-10 -16 -5 0 -10 2 -10 4 0 2 -2 10 -3 18 -2 7 -2 10 0 5 3 -4 9 -5 14 -1z
m-41 -16 c0 -5 -4 -10 -10 -10 -5 0 -10 5 -10 10 0 6 5 10 10 10 6 0 10 -4 10
-10z m154 -6 c3 -8 2 -12 -4 -9 -6 3 -10 10 -10 16 0 14 7 11 14 -7z m9556
-96 c0 -5 -87 -8 -192 -7 -106 1 -183 4 -170 7 33 10 362 9 362 0z m-9657
-125 c-7 -2 -14 -21 -15 -41 l-1 -37 -4 35 c-3 19 -10 38 -16 42 -7 4 1 7 18
7 17 0 24 -3 18 -6z m133 -31 c1 -7 0 -8 -3 -2 -2 5 -11 10 -19 10 -20 0 -17
-38 4 -43 16 -4 16 -5 -1 -6 -20 -1 -32 22 -23 45 7 18 38 15 42 -4z m-101 -2
c-4 -6 -1 -17 5 -25 7 -9 8 -15 2 -15 -12 0 -24 29 -16 41 3 5 7 9 10 9 3 0 2
-5 -1 -10z m32 -32 c-3 -8 -6 -5 -6 6 -1 11 2 17 5 13 3 -3 4 -12 1 -19z
m-117 -249 c10 -22 15 -27 21 -17 5 7 9 9 9 3 0 -5 -4 -16 -8 -23 -6 -9 -12
-5 -22 15 l-13 28 -8 -25 c-6 -21 -7 -19 -6 12 2 46 10 48 27 7z m50 16 c0 -8
-4 -15 -10 -15 -5 0 -7 7 -4 15 4 8 8 15 10 15 2 0 4 -7 4 -15z m64 -14 c3 -5
-2 -8 -12 -7 -9 0 -17 -6 -17 -14 0 -9 8 -14 19 -13 13 1 15 -2 7 -10 -15 -15
-44 14 -35 36 7 18 29 23 38 8z m33 -38 c-3 -10 -5 -2 -5 17 0 19 2 27 5 18 2
-10 2 -26 0 -35z m40 11 c1 -25 0 -26 -4 -4 -3 14 -10 29 -17 33 -7 6 -6 7 4
4 8 -2 16 -16 17 -33z"/>
<path d="M5455 11289 c-8 -34 -3 -44 18 -36 10 4 13 15 10 31 -8 38 -20 41
-28 5z"/>
<path d="M5412 11298 c-16 -16 -15 -48 2 -48 12 0 25 28 26 53 0 11 -15 8 -28
-5z"/>
<path d="M5499 11283 c8 -29 41 -45 41 -20 0 13 -30 47 -42 47 -4 0 -3 -12 1
-27z"/>
<path d="M5397 11220 c6 -21 31 -46 39 -38 12 12 -9 58 -26 58 -13 0 -17 -5
-13 -20z"/>
<path d="M5450 11218 c0 -13 4 -30 10 -38 7 -11 11 -9 19 14 12 31 7 46 -15
46 -8 0 -14 -10 -14 -22z"/>
<path d="M5505 11225 c-3 -8 -7 -22 -10 -30 -2 -8 -1 -15 4 -15 12 0 41 35 41
48 0 17 -30 15 -35 -3z"/>
<path d="M7230 11250 l0 -40 55 0 55 0 0 40 0 40 -55 0 -55 0 0 -40z"/>
<path d="M7615 11270 c-8 -14 3 -30 21 -30 8 0 14 9 14 20 0 21 -24 28 -35 10z"/>
<path d="M7931 11293 c-12 -24 -5 -53 14 -53 18 0 25 36 10 56 -12 16 -13 16
-24 -3z"/>
<path d="M8096 11274 c-8 -21 -8 -24 3 -24 5 0 11 9 14 20 6 24 -8 27 -17 4z"/>
<path d="M8510 11260 c0 -11 7 -20 15 -20 8 0 15 9 15 20 0 11 -7 20 -15 20
-8 0 -15 -9 -15 -20z"/>
<path d="M8701 11296 c-9 -10 -9 -16 -1 -21 17 -10 37 12 24 25 -8 8 -15 6
-23 -4z"/>
<path d="M8927 11303 c-4 -3 -7 -19 -7 -35 0 -23 4 -29 18 -26 21 4 28 41 9
56 -8 7 -17 9 -20 5z"/>
<path d="M9091 11276 c-8 -9 -11 -19 -7 -23 9 -9 29 13 24 27 -2 8 -8 7 -17
-4z"/>
<path d="M9808 11304 c-11 -10 3 -34 19 -34 8 0 13 7 11 17 -3 18 -20 27 -30
17z"/>
<path d="M6120 11260 c0 -15 5 -20 18 -18 9 2 17 10 17 18 0 8 -8 16 -17 18
-13 2 -18 -3 -18 -18z"/>
<path d="M7540 11270 c0 -5 7 -7 15 -4 8 4 15 8 15 10 0 2 -7 4 -15 4 -8 0
-15 -4 -15 -10z"/>
<path d="M8252 11258 c2 -13 8 -23 13 -23 6 0 11 10 13 23 2 15 -2 22 -13 22
-11 0 -15 -7 -13 -22z"/>
<path d="M8430 11270 c0 -5 7 -7 15 -4 8 4 15 8 15 10 0 2 -7 4 -15 4 -8 0
-15 -4 -15 -10z"/>
<path d="M9650 11270 c0 -5 7 -7 15 -4 8 4 15 8 15 10 0 2 -7 4 -15 4 -8 0
-15 -4 -15 -10z"/>
<path d="M9898 11273 c7 -3 16 -2 19 1 4 3 -2 6 -13 5 -11 0 -14 -3 -6 -6z"/>
<path d="M10038 11273 c7 -3 16 -2 19 1 4 3 -2 6 -13 5 -11 0 -14 -3 -6 -6z"/>
<path d="M10260 11276 c0 -2 7 -6 15 -10 8 -3 15 -1 15 4 0 6 -7 10 -15 10 -8
0 -15 -2 -15 -4z"/>
<path d="M4445 11221 c-10 -17 12 -21 25 -6 10 12 10 15 -3 15 -9 0 -18 -4
-22 -9z"/>
<path d="M4655 11250 c-3 -5 3 -10 14 -10 12 0 21 5 21 10 0 6 -6 10 -14 10
-8 0 -18 -4 -21 -10z"/>
<path d="M5185 11250 c-3 -5 3 -10 14 -10 12 0 21 5 21 10 0 6 -6 10 -14 10
-8 0 -18 -4 -21 -10z"/>
<path d="M350 10730 c0 -5 4 -10 9 -10 6 0 13 5 16 10 3 6 -1 10 -9 10 -9 0
-16 -4 -16 -10z"/>
<path d="M725 10760 c-7 -12 2 -30 16 -30 5 0 9 9 9 20 0 21 -15 27 -25 10z"/>
<path d="M998 10763 c7 -3 16 -2 19 1 4 3 -2 6 -13 5 -11 0 -14 -3 -6 -6z"/>
<path d="M7510 10751 c0 -12 6 -21 16 -21 9 0 14 7 12 17 -5 25 -28 28 -28 4z"/>
<path d="M7607 10763 c-13 -12 -7 -33 8 -33 8 0 15 9 15 20 0 20 -11 26 -23
13z"/>
<path d="M7810 10730 c0 -5 4 -10 9 -10 6 0 13 5 16 10 3 6 -1 10 -9 10 -9 0
-16 -4 -16 -10z"/>
<path d="M470 10350 c0 -5 5 -10 10 -10 6 0 10 5 10 10 0 6 -4 10 -10 10 -5 0
-10 -4 -10 -10z"/>
<path d="M500 10274 c0 -8 5 -12 10 -9 6 3 10 10 10 16 0 5 -4 9 -10 9 -5 0
-10 -7 -10 -16z"/>
<path d="M3774 10359 c-3 -6 -1 -16 5 -22 8 -8 11 -5 11 11 0 24 -5 28 -16 11z"/>
<path d="M3800 10281 c0 -6 5 -13 10 -16 6 -3 10 1 10 9 0 9 -4 16 -10 16 -5
0 -10 -4 -10 -9z"/>
<path d="M2444 10359 c-3 -6 -1 -16 5 -22 8 -8 11 -5 11 11 0 24 -5 28 -16 11z"/>
<path d="M2480 10274 c0 -8 5 -12 10 -9 6 4 8 11 5 16 -9 14 -15 11 -15 -7z"/>
<path d="M5416 10361 c-4 -7 -5 -15 -2 -18 9 -9 19 4 14 18 -4 11 -6 11 -12 0z"/>
<path d="M5446 10275 c4 -8 8 -15 10 -15 2 0 4 7 4 15 0 8 -4 15 -10 15 -5 0
-7 -7 -4 -15z"/>
<path d="M614 10295 c-8 -19 3 -35 26 -35 19 0 30 17 23 38 -6 17 -42 15 -49
-3z"/>
<path d="M920 10351 c0 -15 6 -21 21 -21 14 0 19 5 17 17 -5 26 -38 29 -38 4z"/>
<path d="M915 10290 c-9 -15 3 -30 24 -30 23 0 31 9 24 26 -6 16 -39 19 -48 4z"/>
<path d="M1076 10325 c-21 -31 -20 -35 4 -35 16 0 20 7 20 30 0 36 -3 37 -24
5z"/>
<path d="M1221 10356 c-7 -8 -11 -32 -9 -53 2 -30 7 -38 22 -38 26 0 42 48 27
81 -12 27 -23 30 -40 10z"/>
<path d="M1436 10325 c-21 -31 -20 -35 4 -35 16 0 20 7 20 30 0 36 -3 37 -24
5z"/>
<path d="M2708 10320 c-16 -29 -16 -30 1 -30 13 0 20 9 23 30 6 38 -2 38 -24
0z"/>
<path d="M2905 10360 c-11 -17 -8 -81 3 -92 27 -27 55 20 42 72 -6 27 -34 39
-45 20z"/>
<path d="M3066 10325 c-21 -31 -20 -35 4 -35 16 0 20 7 20 30 0 36 -3 37 -24
5z"/>
<path d="M3212 10361 c-9 -5 -12 -24 -10 -52 2 -36 7 -44 22 -44 25 0 40 43
27 78 -11 29 -18 32 -39 18z"/>
<path d="M4044 10356 c-8 -21 13 -46 32 -39 20 8 13 47 -9 51 -9 2 -20 -4 -23
-12z"/>
<path d="M4201 10356 c-7 -8 -11 -32 -9 -53 2 -30 7 -38 22 -38 25 0 40 43 27
78 -12 30 -23 34 -40 13z"/>
<path d="M4416 10325 c-21 -31 -20 -35 4 -35 16 0 20 7 20 30 0 36 -3 37 -24
5z"/>
<path d="M4555 10360 c-11 -17 -8 -81 3 -92 6 -6 18 -8 27 -4 23 8 17 99 -7
104 -9 2 -19 -2 -23 -8z"/>
<path d="M4705 10360 c-8 -13 3 -30 20 -30 14 0 27 24 18 34 -10 9 -31 7 -38
-4z"/>
<path d="M4700 10280 c0 -16 5 -21 23 -18 12 2 22 10 22 18 0 8 -10 16 -22 18
-18 3 -23 -2 -23 -18z"/>
<path d="M9032 10318 c6 -18 28 -21 28 -4 0 9 -7 16 -16 16 -9 0 -14 -5 -12
-12z"/>
<path d="M10270 10315 c0 -8 7 -15 15 -15 8 0 15 7 15 15 0 8 -7 15 -15 15 -8
0 -15 -7 -15 -15z"/>
<path d="M2423 10094 c-7 -19 2 -28 22 -21 19 8 19 23 0 31 -9 3 -18 -1 -22
-10z"/>
<path d="M3756 10075 c-3 -9 0 -15 9 -15 16 0 20 16 6 24 -5 3 -11 -1 -15 -9z"/>
<path d="M4706 10103 c-13 -14 -5 -33 14 -33 11 0 20 6 20 14 0 15 -24 28 -34
19z"/>
<path d="M5400 10076 c0 -9 5 -16 10 -16 6 0 10 4 10 9 0 6 -4 13 -10 16 -5 3
-10 -1 -10 -9z"/>
<path d="M6256 10103 c-13 -14 -5 -33 14 -33 11 0 20 6 20 14 0 15 -24 28 -34
19z"/>
<path d="M2577 10067 c-7 -19 8 -41 22 -33 16 10 14 46 -3 46 -8 0 -16 -6 -19
-13z"/>
<path d="M2823 10064 c-8 -21 13 -42 28 -27 13 13 5 43 -11 43 -6 0 -13 -7
-17 -16z"/>
<path d="M3103 10064 c-8 -21 13 -42 28 -27 13 13 5 43 -11 43 -6 0 -13 -7
-17 -16z"/>
<path d="M2500 10070 c0 -5 7 -10 15 -10 8 0 15 5 15 10 0 6 -7 10 -15 10 -8
0 -15 -4 -15 -10z"/>
<path d="M4060 10040 c0 -5 4 -10 9 -10 6 0 13 5 16 10 3 6 -1 10 -9 10 -9 0
-16 -4 -16 -10z"/>
<path d="M2750 10070 c0 -5 7 -10 15 -10 8 0 15 5 15 10 0 6 -7 10 -15 10 -8
0 -15 -4 -15 -10z"/>
<path d="M4280 10040 c0 -5 4 -10 9 -10 6 0 13 5 16 10 3 6 -1 10 -9 10 -9 0
-16 -4 -16 -10z"/>
<path d="M4583 10064 c-7 -18 11 -39 26 -30 17 11 13 46 -4 46 -9 0 -18 -7
-22 -16z"/>
<path d="M4780 10040 c0 -5 7 -10 15 -10 8 0 15 5 15 10 0 6 -7 10 -15 10 -8
0 -15 -4 -15 -10z"/>
<path d="M4905 10070 c-3 -5 3 -10 15 -10 12 0 18 5 15 10 -3 6 -10 10 -15 10
-5 0 -12 -4 -15 -10z"/>
<path d="M5533 10064 c-6 -16 15 -37 29 -28 4 3 8 14 8 25 0 23 -28 26 -37 3z"/>
<path d="M5768 10038 c9 -9 15 -9 24 0 9 9 7 12 -12 12 -19 0 -21 -3 -12 -12z"/>
<path d="M6340 10070 c0 -5 7 -10 15 -10 8 0 15 5 15 10 0 6 -7 10 -15 10 -8
0 -15 -4 -15 -10z"/>
<path d="M6570 10040 c0 -5 7 -10 15 -10 8 0 15 5 15 10 0 6 -7 10 -15 10 -8
0 -15 -4 -15 -10z"/>
<path d="M7776 9934 c-19 -18 -19 -20 -6 -45 12 -21 40 -25 58 -7 18 18 14 46
-7 58 -25 13 -27 13 -45 -6z"/>
<path d="M7750 9788 c-11 -12 -20 -25 -20 -30 0 -4 34 -8 76 -8 71 0 76 1 63
18 -36 48 -85 56 -119 20z"/>
<path d="M7776 9335 c-9 -9 -16 -20 -16 -25 0 -15 32 -41 48 -38 24 5 39 35
26 56 -15 23 -38 26 -58 7z"/>
<path d="M9630 9230 c0 -13 7 -20 20 -20 13 0 20 7 20 20 0 13 -7 20 -20 20
-13 0 -20 -7 -20 -20z"/>
<path d="M10302 9255 c-10 -22 -9 -25 8 -25 15 0 20 7 20 25 0 14 -4 25 -8 25
-5 0 -14 -11 -20 -25z"/>
<path d="M7747 9192 c-32 -35 -21 -42 59 -42 l75 0 -21 30 c-17 24 -29 30 -59
30 -24 0 -44 -7 -54 -18z"/>
<path d="M7770 8735 c-23 -28 9 -72 45 -59 36 14 24 74 -15 74 -10 0 -23 -7
-30 -15z"/>
<path d="M7752 8594 c-44 -31 -28 -44 54 -44 79 0 81 2 46 43 -19 21 -70 22
-100 1z"/>
<path d="M7772 8138 c-18 -18 -15 -35 9 -52 25 -17 46 -12 54 15 12 38 -35 65
-63 37z"/>
<path d="M7771 8007 c-13 -6 -31 -22 -39 -34 l-14 -23 76 0 c80 0 95 10 59 42
-27 24 -55 29 -82 15z"/>
<path d="M7769 7534 c-17 -21 0 -49 31 -49 31 0 48 28 31 49 -8 9 -21 16 -31
16 -10 0 -23 -7 -31 -16z"/>
<path d="M7756 7399 c-47 -37 -35 -49 49 -49 72 0 75 1 65 19 -13 25 -49 51
-71 51 -9 0 -28 -9 -43 -21z"/>
<path d="M637 7045 c-9 -21 2 -45 20 -45 10 0 13 9 11 27 -3 30 -23 41 -31 18z"/>
<path d="M716 7053 c-12 -13 -6 -53 9 -53 9 0 15 9 15 24 0 26 -12 40 -24 29z"/>
<path d="M9795 6930 c-3 -5 3 -10 15 -10 12 0 18 5 15 10 -3 6 -10 10 -15 10
-5 0 -12 -4 -15 -10z"/>
<path d="M266 6213 c-11 -11 -6 -23 9 -23 8 0 15 4 15 9 0 13 -16 22 -24 14z"/>
<path d="M260 6162 c0 -14 11 -21 26 -15 21 8 17 23 -6 23 -11 0 -20 -4 -20
-8z"/>
<path d="M5630 6200 c0 -5 7 -10 15 -10 8 0 15 5 15 10 0 6 -7 10 -15 10 -8 0
-15 -4 -15 -10z"/>
<path d="M5632 6158 c5 -15 28 -18 29 -3 0 6 -7 12 -17 13 -10 3 -15 -1 -12
-10z"/>
<path d="M627 6178 c1 -18 2 -34 2 -36 1 -1 10 2 22 8 26 14 22 54 -6 58 -17
2 -20 -3 -18 -30z"/>
<path d="M360 6180 c0 -5 5 -10 10 -10 6 0 10 5 10 10 0 6 -4 10 -10 10 -5 0
-10 -4 -10 -10z"/>
<path d="M730 6150 c0 -5 4 -10 9 -10 6 0 13 5 16 10 3 6 -1 10 -9 10 -9 0
-16 -4 -16 -10z"/>
<path d="M5730 6180 c0 -5 5 -10 10 -10 6 0 10 5 10 10 0 6 -4 10 -10 10 -5 0
-10 -4 -10 -10z"/>
<path d="M6104 6175 c-3 -8 -3 -19 1 -25 11 -18 25 -11 25 15 0 27 -17 34 -26
10z"/>
<path d="M596 5763 c-12 -13 -6 -53 9 -53 9 0 15 9 15 24 0 26 -12 40 -24 29z"/>
<path d="M664 3956 c-8 -22 3 -49 19 -43 6 2 12 14 12 27 0 27 -22 39 -31 16z"/>
<path d="M5987 3963 c-11 -10 -8 -41 4 -49 17 -10 32 12 24 35 -6 21 -16 26
-28 14z"/>
<path d="M260 3126 c0 -39 18 -48 41 -20 15 18 2 47 -25 52 -12 3 -16 -4 -16
-32z"/>
<path d="M370 3100 c-13 -8 -12 -10 3 -10 9 0 17 5 17 10 0 12 -1 12 -20 0z"/>
<path d="M700 3110 c0 -11 7 -20 15 -20 8 0 15 9 15 20 0 11 -7 20 -15 20 -8
0 -15 -9 -15 -20z"/>
<path d="M1075 3100 c-3 -5 -1 -10 4 -10 6 0 11 5 11 10 0 6 -2 10 -4 10 -3 0
-8 -4 -11 -10z"/>
<path d="M1440 3110 c0 -11 7 -20 15 -20 8 0 15 9 15 20 0 11 -7 20 -15 20 -8
0 -15 -9 -15 -20z"/>
<path d="M1765 3130 c-3 -5 1 -10 10 -10 9 0 13 5 10 10 -3 6 -8 10 -10 10 -2
0 -7 -4 -10 -10z"/>
<path d="M1858 3093 c7 -3 16 -2 19 1 4 3 -2 6 -13 5 -11 0 -14 -3 -6 -6z"/>
<path d="M2220 3110 c0 -11 7 -20 15 -20 8 0 15 9 15 20 0 11 -7 20 -15 20 -8
0 -15 -9 -15 -20z"/>
<path d="M2507 2706 c-4 -10 -5 -21 -2 -24 9 -9 17 6 13 25 -3 17 -4 17 -11
-1z"/>
<path d="M4143 2700 c0 -17 6 -30 13 -30 8 0 12 10 10 27 -4 38 -23 40 -23 3z"/>
<path d="M4984 2716 c-8 -22 3 -49 19 -43 6 2 12 14 12 27 0 27 -22 39 -31 16z"/>
<path d="M7425 2707 c-4 -10 -5 -21 -1 -24 10 -10 18 4 13 24 -4 17 -4 17 -12
0z"/>
<path d="M9060 2721 c0 -6 5 -13 10 -16 6 -3 10 1 10 9 0 9 -4 16 -10 16 -5 0
-10 -4 -10 -9z"/>
<path d="M9055 2680 c3 -5 13 -10 21 -10 8 0 14 5 14 10 0 6 -9 10 -21 10 -11
0 -17 -4 -14 -10z"/>
<path d="M9907 2723 c-13 -13 -7 -53 8 -53 10 0 15 10 15 30 0 29 -9 38 -23
23z"/>
</g>
</svg>
