<svg id="visual" viewBox="0 0 900 600" width="900" height="600" xmlns="http://www.w3.org/2000/svg" xmlns:xlink="http://www.w3.org/1999/xlink" version="1.1"><rect x="0" y="0" width="900" height="600" fill="#CCCCCC"></rect><path d="M240 600L272.7 585.7C305.3 571.3 370.7 542.7 357.2 514.2C343.7 485.7 251.3 457.3 234.5 428.8C217.7 400.3 276.3 371.7 305.3 343C334.3 314.3 333.7 285.7 303.2 257C272.7 228.3 212.3 199.7 216.7 171.2C221 142.7 290 114.3 298.7 85.8C307.3 57.3 255.7 28.7 229.8 14.3L204 0L900 0L900 14.3C900 28.7 900 57.3 900 85.8C900 114.3 900 142.7 900 171.2C900 199.7 900 228.3 900 257C900 285.7 900 314.3 900 343C900 371.7 900 400.3 900 428.8C900 457.3 900 485.7 900 514.2C900 542.7 900 571.3 900 585.7L900 600Z" fill="#c62368"></path><path d="M328 600L351.3 585.7C374.7 571.3 421.3 542.7 435.2 514.2C449 485.7 430 457.3 421.3 428.8C412.7 400.3 414.3 371.7 395.7 343C377 314.3 338 285.7 349.5 257C361 228.3 423 199.7 455 171.2C487 142.7 489 114.3 465.5 85.8C442 57.3 393 28.7 368.5 14.3L344 0L900 0L900 14.3C900 28.7 900 57.3 900 85.8C900 114.3 900 142.7 900 171.2C900 199.7 900 228.3 900 257C900 285.7 900 314.3 900 343C900 371.7 900 400.3 900 428.8C900 457.3 900 485.7 900 514.2C900 542.7 900 571.3 900 585.7L900 600Z" fill="#d53867"></path><path d="M472 600L490.7 585.7C509.3 571.3 546.7 542.7 538 514.2C529.3 485.7 474.7 457.3 481.5 428.8C488.3 400.3 556.7 371.7 575.7 343C594.7 314.3 564.3 285.7 533.7 257C503 228.3 472 199.7 473.7 171.2C475.3 142.7 509.7 114.3 524 85.8C538.3 57.3 532.7 28.7 529.8 14.3L527 0L900 0L900 14.3C900 28.7 900 57.3 900 85.8C900 114.3 900 142.7 900 171.2C900 199.7 900 228.3 900 257C900 285.7 900 314.3 900 343C900 371.7 900 400.3 900 428.8C900 457.3 900 485.7 900 514.2C900 542.7 900 571.3 900 585.7L900 600Z" fill="#e34c67"></path><path d="M554 600L562 585.7C570 571.3 586 542.7 605.3 514.2C624.7 485.7 647.3 457.3 646.8 428.8C646.3 400.3 622.7 371.7 631 343C639.3 314.3 679.7 285.7 689.5 257C699.3 228.3 678.7 199.7 679 171.2C679.3 142.7 700.7 114.3 689.3 85.8C678 57.3 634 28.7 612 14.3L590 0L900 0L900 14.3C900 28.7 900 57.3 900 85.8C900 114.3 900 142.7 900 171.2C900 199.7 900 228.3 900 257C900 285.7 900 314.3 900 343C900 371.7 900 400.3 900 428.8C900 457.3 900 485.7 900 514.2C900 542.7 900 571.3 900 585.7L900 600Z" fill="#ef5f67"></path><path d="M777 600L780.7 585.7C784.3 571.3 791.7 542.7 784.3 514.2C777 485.7 755 457.3 736.2 428.8C717.3 400.3 701.7 371.7 698.7 343C695.7 314.3 705.3 285.7 726.2 257C747 228.3 779 199.7 787.3 171.2C795.7 142.7 780.3 114.3 764.5 85.8C748.7 57.3 732.3 28.7 724.2 14.3L716 0L900 0L900 14.3C900 28.7 900 57.3 900 85.8C900 114.3 900 142.7 900 171.2C900 199.7 900 228.3 900 257C900 285.7 900 314.3 900 343C900 371.7 900 400.3 900 428.8C900 457.3 900 485.7 900 514.2C900 542.7 900 571.3 900 585.7L900 600Z" fill="#fa7268"></path></svg>